<?xml version="1.0" encoding="iso-8859-1"?>
<!-- Generator: Adobe Illustrator 19.0.0, SVG Export Plug-In . SVG Version: 6.00 Build 0)  -->
<svg version="1.1" id="Capa_1" xmlns="http://www.w3.org/2000/svg" xmlns:xlink="http://www.w3.org/1999/xlink" x="0px" y="0px"
	 viewBox="0 0 409.6 409.6" style="enable-background:new 0 0 409.6 409.6;" xml:space="preserve">
<g>
	<g>
		<path d="M326.13,0H83.47c-2.83,0-5.12,2.29-5.12,5.12v399.36c0,2.83,2.29,5.12,5.12,5.12h242.66c2.83,0,5.12-2.29,5.12-5.12V5.12
			C331.25,2.29,328.96,0,326.13,0z M119.46,399.36H88.59v-29.22h30.87V399.36z M119.46,359.9H88.59v-29.815h30.87V359.9z
			 M119.46,319.845H88.59V290.03h30.87V319.845z M119.46,279.79H88.59v-29.815h30.87V279.79z M119.46,239.735H88.59V209.92h30.87
			V239.735z M119.46,199.68H88.59v-29.815h30.87V199.68z M119.46,159.625H88.59V129.81h30.87V159.625z M119.46,119.57H88.59V89.755
			h30.87V119.57z M119.46,79.515H88.59V49.7h30.87V79.515z M119.46,39.46H88.59V10.24h30.87V39.46z M279.9,399.36H129.7V290.03
			h150.2V399.36z M279.9,279.79H129.7V129.81h150.2V279.79z M279.9,119.57H129.7V10.24h150.2V119.57z M321.01,399.36h-30.87v-29.22
			h30.87V399.36z M321.01,359.9h-30.87v-29.815h30.87V359.9z M321.01,319.845h-30.87V290.03h30.87V319.845z M321.01,279.79h-30.87
			v-29.815h30.87V279.79z M321.01,239.735h-30.87V209.92h30.87V239.735z M321.01,199.68h-30.87v-29.815h30.87V199.68z
			 M321.01,159.625h-30.87V129.81h30.87V159.625z M321.01,119.57h-30.87V89.755h30.87V119.57z M321.01,79.515h-30.87V49.7h30.87
			V79.515z M321.01,39.46h-30.87V10.24h30.87V39.46z"/>
	</g>
</g>
<g>
</g>
<g>
</g>
<g>
</g>
<g>
</g>
<g>
</g>
<g>
</g>
<g>
</g>
<g>
</g>
<g>
</g>
<g>
</g>
<g>
</g>
<g>
</g>
<g>
</g>
<g>
</g>
<g>
</g>
</svg>
