<?xml version="1.0" encoding="iso-8859-1"?>
<!-- Generator: Adobe Illustrator 19.0.0, SVG Export Plug-In . SVG Version: 6.00 Build 0)  -->
<svg version="1.1" id="Capa_1" xmlns="http://www.w3.org/2000/svg" xmlns:xlink="http://www.w3.org/1999/xlink" x="0px" y="0px"
	 viewBox="0 0 512 512" style="enable-background:new 0 0 512 512;" xml:space="preserve">
<g>
	<g>
		<rect x="58.46" y="210.05" width="32.877" height="30"/>
	</g>
</g>
<g>
	<g>
		<rect x="58.46" y="270.06" width="32.877" height="30"/>
	</g>
</g>
<g>
	<g>
		<rect x="58.46" y="330.06" width="32.877" height="30"/>
	</g>
</g>
<g>
	<g>
		<rect x="58.46" y="390.06" width="32.877" height="30"/>
	</g>
</g>
<g>
	<g>
		<rect x="58.46" y="90.04" width="32.877" height="30"/>
	</g>
</g>
<g>
	<g>
		<rect x="121.33" y="270.06" width="269.33" height="211.95"/>
	</g>
</g>
<g>
	<g>
		<rect x="58.46" y="30" width="32.877" height="30.04"/>
	</g>
</g>
<g>
	<g>
		<rect x="58.46" y="150.05" width="32.877" height="30"/>
	</g>
</g>
<g>
	<g>
		<rect x="58.46" y="450.07" width="32.877" height="31.936"/>
	</g>
</g>
<g>
	<g>
		<rect x="420.67" y="270.06" width="32.877" height="30"/>
	</g>
</g>
<g>
	<g>
		<rect x="420.67" y="330.06" width="32.877" height="30"/>
	</g>
</g>
<g>
	<g>
		<rect x="420.67" y="390.06" width="32.877" height="30"/>
	</g>
</g>
<g>
	<g>
		<rect x="420.67" y="30" width="32.877" height="30.04"/>
	</g>
</g>
<g>
	<g>
		<rect x="420.67" y="450.07" width="32.877" height="31.936"/>
	</g>
</g>
<g>
	<g>
		<rect x="121.33" y="30" width="269.33" height="210.05"/>
	</g>
</g>
<g>
	<g>
		<rect x="420.67" y="150.05" width="32.877" height="30"/>
	</g>
</g>
<g>
	<g>
		<rect x="420.67" y="210.05" width="32.877" height="30"/>
	</g>
</g>
<g>
	<g>
		<rect x="420.67" y="90.04" width="32.877" height="30"/>
	</g>
</g>
<g>
	<g>
		<polygon points="28.457,0.002 0,0.002 0,511.998 28.457,511.998 30,511.998 30,0.002 		"/>
	</g>
</g>
<g>
	<g>
		<polygon points="483.543,0.002 482,0.002 482,511.998 483.543,511.998 512,511.998 512,0.002 		"/>
	</g>
</g>
<g>
</g>
<g>
</g>
<g>
</g>
<g>
</g>
<g>
</g>
<g>
</g>
<g>
</g>
<g>
</g>
<g>
</g>
<g>
</g>
<g>
</g>
<g>
</g>
<g>
</g>
<g>
</g>
<g>
</g>
</svg>
