<?xml version="1.0" encoding="iso-8859-1"?>
<!-- Generator: Adobe Illustrator 19.0.0, SVG Export Plug-In . SVG Version: 6.00 Build 0)  -->
<svg version="1.1" id="Capa_1" xmlns="http://www.w3.org/2000/svg" xmlns:xlink="http://www.w3.org/1999/xlink" x="0px" y="0px"
	 viewBox="0 0 512.002 512.002" style="enable-background:new 0 0 512.002 512.002;" xml:space="preserve">
<g>
	<g>
		<path d="M511.85,241.806l-9.68-54.896c-0.785-4.453-4.462-7.825-8.966-8.225l-45.678-4.047
			c-6.178-14.068-13.909-27.432-23.055-39.854l19.356-41.623c1.907-4.101,0.825-8.971-2.64-11.877l-42.703-35.832
			c-3.464-2.906-8.447-3.127-12.155-0.538L348.73,71.181c-13.809-6.845-28.32-12.128-43.283-15.758L293.53,11.139
			c-1.175-4.366-5.134-7.401-9.656-7.401H228.13c-4.522,0-8.481,3.035-9.656,7.401l-11.918,44.285
			c-14.956,3.628-29.468,8.911-43.282,15.757l-37.6-26.267c-3.708-2.59-8.691-2.369-12.155,0.538L70.816,81.284
			c-3.464,2.906-4.547,7.776-2.64,11.877l19.351,41.614c-9.143,12.415-16.874,25.781-23.058,39.863l-45.67,4.046
			c-4.504,0.398-8.181,3.771-8.966,8.225l-9.68,54.896c-0.785,4.453,1.516,8.879,5.612,10.795l41.588,19.448
			c0.98,15.386,3.65,30.586,7.963,45.336l-32.401,32.471c-3.194,3.201-3.843,8.147-1.582,12.064l27.871,48.277
			c2.262,3.917,6.87,5.826,11.239,4.662l44.36-11.837c10.635,11.136,22.451,21.061,35.241,29.6l-3.95,45.714
			c-0.389,4.506,2.293,8.712,6.542,10.258l52.383,19.066c4.249,1.547,9.008,0.049,11.606-3.651l26.359-37.559
			c15.228,1.668,30.66,1.678,46.029-0.01l26.366,37.568c1.913,2.727,4.997,4.257,8.188,4.257c1.142,0,2.298-0.196,3.418-0.605
			l52.383-19.066c4.249-1.546,6.932-5.752,6.542-10.257l-3.95-45.722c12.788-8.536,24.603-18.457,35.241-29.592l44.36,11.834
			c4.368,1.165,8.977-0.746,11.238-4.662l27.872-48.275c2.261-3.916,1.613-8.862-1.582-12.064L456.703,317.4
			c4.313-14.745,6.982-29.954,7.961-45.359l41.572-19.44C510.334,250.685,512.635,246.259,511.85,241.806z M450.737,256.476
			c-3.405,1.593-5.63,4.96-5.758,8.717c-0.605,17.711-3.672,35.179-9.114,51.921c-1.162,3.572-0.222,7.495,2.432,10.154
			l31.222,31.289l-20.208,35l-42.768-11.409c-3.628-0.968-7.493,0.179-10.007,2.969c-11.832,13.132-25.412,24.534-40.361,33.891
			c-3.182,1.991-4.981,5.598-4.658,9.337l3.808,44.077l-37.978,13.823l-25.416-36.216c-2.155-3.072-5.845-4.676-9.566-4.16
			c-8.75,1.22-17.62,1.838-26.363,1.838c-8.802,0-17.674-0.614-26.37-1.826c-3.718-0.516-7.41,1.089-9.566,4.159l-25.409,36.205
			l-37.978-13.823l3.808-44.068c0.323-3.74-1.475-7.346-4.657-9.338c-14.954-9.36-28.532-20.766-40.358-33.898
			c-2.513-2.792-6.38-3.939-10.009-2.971l-42.77,11.412l-20.207-35.001l31.238-31.305c2.653-2.659,3.593-6.581,2.432-10.154
			c-5.444-16.753-8.511-34.214-9.117-51.898c-0.129-3.756-2.353-7.123-5.758-8.716l-40.1-18.754l7.018-39.8l44.029-3.9
			c3.741-0.331,6.981-2.731,8.389-6.214c6.607-16.346,15.487-31.698,26.393-45.63c2.318-2.961,2.779-6.971,1.194-10.381
			l-18.66-40.128l30.961-25.979l36.256,25.328c3.082,2.152,7.112,2.395,10.43,0.627c15.604-8.317,32.266-14.383,49.524-18.029
			c3.68-0.777,6.612-3.554,7.589-7.186l11.492-42.702h40.415l11.49,42.703c0.977,3.632,3.909,6.408,7.589,7.186
			c17.266,3.647,33.928,9.714,49.522,18.028c3.319,1.771,7.35,1.526,10.432-0.626L391.5,65.7l30.96,25.979l-18.664,40.136
			c-1.585,3.409-1.125,7.419,1.192,10.38c10.913,13.945,19.793,29.294,26.391,45.621c1.408,3.482,4.647,5.883,8.389,6.214
			l44.037,3.901l7.018,39.801L450.737,256.476z"/>
	</g>
</g>
<g>
	<g>
		<path d="M375.855,136.147c-32.014-32.014-74.579-49.645-119.853-49.645c-45.274,0-87.839,17.631-119.852,49.645
			c-66.087,66.087-66.087,173.618,0,239.705c32.014,32.014,74.578,49.645,119.852,49.645s87.839-17.631,119.852-49.645
			c32.014-32.014,49.646-74.578,49.646-119.853C425.5,210.725,407.868,168.16,375.855,136.147z M361.712,361.709
			c-28.236,28.236-65.778,43.786-105.71,43.786c-39.932,0-77.474-15.55-105.71-43.786c-58.289-58.289-58.289-153.131,0-211.42
			c28.236-28.236,65.778-43.786,105.71-43.786c39.932,0,77.474,15.55,105.71,43.786c28.237,28.236,43.787,65.778,43.787,105.71
			C405.499,295.931,389.949,333.473,361.712,361.709z"/>
	</g>
</g>
<g>
	<g>
		<path d="M258.247,121.52c-17.16-0.298-33.975,2.657-50.007,8.748c-5.163,1.962-7.758,7.737-5.797,12.9
			c1.517,3.994,5.317,6.451,9.35,6.451c1.18,0,2.381-0.211,3.549-0.654c13.648-5.186,27.966-7.69,42.571-7.447
			c5.543,0.138,10.074-4.311,10.166-9.832C268.171,126.164,263.769,121.613,258.247,121.52z"/>
	</g>
</g>
<g>
	<g>
		<path d="M290.707,126.056l-0.325-0.087c-5.327-1.442-10.822,1.706-12.267,7.037c-1.443,5.331,1.708,10.824,7.038,12.269
			l0.587,0.155c0.833,0.214,1.668,0.316,2.491,0.316c4.457,0,8.521-3.003,9.679-7.52
			C299.282,132.876,296.057,127.428,290.707,126.056z"/>
	</g>
</g>
<g>
	<g>
		<path d="M340.167,176.341c-5.625-5.62-13.427-8.844-21.408-8.844c-8.185,0-15.709,3.227-21.188,9.086l-12.607,13.482
			l-15.257,15.815l-86.36-26.311c-3.535-1.074-7.373-0.117-9.986,2.496l-18.43,18.432c-2.174,2.174-3.227,5.228-2.855,8.279
			c0.372,3.053,2.128,5.764,4.76,7.352l65.27,39.39l-16.003,17.018l-22.841-1.643c-2.888-0.201-5.736,0.853-7.788,2.903
			l-15.513,15.512c-2.286,2.285-3.326,5.534-2.792,8.723c0.534,3.188,2.575,5.921,5.48,7.337l32.595,15.893l15.893,32.596
			c1.417,2.905,4.15,4.946,7.338,5.48c3.187,0.53,6.437-0.507,8.722-2.792l15.512-15.512c2.052-2.052,3.111-4.895,2.903-7.789
			l-1.643-22.842l17.018-16.003l39.39,65.271c1.589,2.633,4.3,4.388,7.353,4.76c0.404,0.049,0.808,0.073,1.21,0.073
			c2.635,0,5.184-1.042,7.07-2.929l18.432-18.43c2.608-2.608,3.569-6.439,2.5-9.968l-26.152-86.407l12.938-12.628l16.213-15.222
			c5.717-5.369,8.935-12.727,9.061-20.715C349.129,190.053,345.91,182.084,340.167,176.341z M326.248,204.34l-16.282,15.287
			c-0.047,0.044-0.094,0.089-0.14,0.134l-17.352,16.938c-2.67,2.606-3.667,6.482-2.586,10.053l26.176,86.486l-5.163,5.162
			l-39.186-64.931c-1.561-2.586-4.207-4.329-7.2-4.74c-0.454-0.063-0.909-0.093-1.362-0.093c-2.528,0-4.983,0.96-6.85,2.715
			l-29.5,27.74c-2.192,2.062-3.34,5.001-3.124,8.003l1.656,23.028l-2.366,2.366L211.711,309.4c-0.979-2.006-2.6-3.628-4.606-4.605
			l-23.088-11.258l2.366-2.366l23.027,1.657c3.005,0.215,5.941-0.933,8.003-3.124l27.74-29.5c2.069-2.201,3.033-5.22,2.622-8.212
			c-0.411-2.993-2.153-5.64-4.74-7.2l-64.931-39.185l5.154-5.154l86.478,26.347c3.596,1.095,7.502,0.082,10.111-2.623l19.563-20.279
			c0.036-0.038,0.072-0.075,0.107-0.113l12.66-13.539c2.234-2.39,5.082-2.746,6.58-2.746c2.717,0,5.364,1.089,7.262,2.987
			c1.938,1.937,3.023,4.637,2.98,7.406C328.961,200.419,327.983,202.71,326.248,204.34z"/>
	</g>
</g>
<g>
</g>
<g>
</g>
<g>
</g>
<g>
</g>
<g>
</g>
<g>
</g>
<g>
</g>
<g>
</g>
<g>
</g>
<g>
</g>
<g>
</g>
<g>
</g>
<g>
</g>
<g>
</g>
<g>
</g>
</svg>
