<?xml version="1.0" encoding="UTF-8" standalone="no"?>
<!-- Created with Inkscape (http://www.inkscape.org/) -->

<svg
   version="1.1"
   id="svg345"
   xml:space="preserve"
   width="682.66669"
   height="682.66669"
   viewBox="0 0 682.66669 682.66669"
   xmlns="http://www.w3.org/2000/svg"
   xmlns:svg="http://www.w3.org/2000/svg"><defs
     id="defs349"><clipPath
       clipPathUnits="userSpaceOnUse"
       id="clipPath359"><path
         d="M 0,512 H 512 V 0 H 0 Z"
         id="path357" /></clipPath></defs><g
     id="g351"
     transform="matrix(1.3333333,0,0,-1.3333333,0,682.66667)"><g
       id="g353"><g
         id="g355"
         clip-path="url(#clipPath359)"><g
           id="g361"
           transform="translate(277.9102,324.5044)"><path
             d="m 0,0 7.816,7.8 20.455,20.409 c 10.556,10.532 10.556,27.782 0,38.314 -10.555,10.533 -27.843,10.533 -38.399,0 L -38.399,38.314"
             style="fill:none;stroke:#000000;stroke-width:15;stroke-linecap:round;stroke-linejoin:round;stroke-miterlimit:10;stroke-dasharray:none;stroke-opacity:1"
             id="path363" /></g><g
           id="g365"
           transform="translate(409.4268,268.9121)"><path
             d="m 0,0 c -9.243,9.223 -24.392,9.223 -33.635,0 l -35.918,-35.866 c -9.243,-9.223 -9.243,-24.31 0,-33.532 9.243,-9.223 24.364,-9.223 33.608,0 L 0,-33.532 C 9.244,-24.31 9.244,-9.223 0,0 Z"
             style="fill:none;stroke:#000000;stroke-width:15;stroke-linecap:round;stroke-linejoin:round;stroke-miterlimit:10;stroke-dasharray:none;stroke-opacity:1"
             id="path367" /></g><g
           id="g369"
           transform="translate(340.9873,310.813)"><path
             d="m 0,0 c -3.595,-3.587 3.794,3.786 3.908,3.899 10.241,10.561 10.128,27.555 -0.314,38.002 -10.555,10.532 -27.844,10.532 -38.4,0 l -14.15,-14.119"
             style="fill:none;stroke:#000000;stroke-width:15;stroke-linecap:round;stroke-linejoin:round;stroke-miterlimit:10;stroke-dasharray:none;stroke-opacity:1"
             id="path371" /></g><g
           id="g373"
           transform="translate(336.793,86.3931)"><path
             d="m 0,0 c -0.542,12.895 1.911,25.932 7.418,37.858 l -124.1,123.853 M 26.047,107 51.38,81.724 c 30.298,13.891 67.527,8.425 92.404,-16.396 19.857,-19.812 27.36,-47.48 22.482,-73.213 -5.108,-27.013 -19.371,-6.575 -22.282,-3.672 L 109.15,23.199 C 96.969,35.354 77.37,35.866 64.561,24.708 53.377,11.927 53.891,-7.629 66.072,-19.784 l 34.834,-34.756 c 2.91,-2.903 23.394,-17.136 -3.68,-22.231 -25.79,-4.868 -53.52,2.619 -73.375,22.431 -6.192,6.205 -11.184,13.151 -14.978,20.551 m -146.78,304.351 -31.097,31.056 c 13.922,30.23 8.444,67.377 -16.433,92.198 -19.855,19.812 -47.584,27.299 -73.375,22.431 -27.074,-5.095 -6.59,-19.328 -3.68,-22.231 l 34.834,-34.756 c 12.181,-12.155 12.695,-31.711 1.512,-44.491 -12.81,-11.159 -32.409,-10.646 -44.59,1.508 l -34.834,34.756 c -2.91,2.904 -17.174,23.342 -22.282,-3.672 -4.877,-25.733 2.625,-53.401 22.482,-73.213 24.877,-24.821 62.106,-30.287 92.404,-16.396 l 32.922,-32.848"
             style="fill:none;stroke:#000000;stroke-width:15;stroke-linecap:round;stroke-linejoin:round;stroke-miterlimit:10;stroke-dasharray:none;stroke-opacity:1"
             id="path375" /></g><g
           id="g377"
           transform="translate(144.2246,118.103)"><path
             d="m 0,0 43.021,-42.925 c 6.648,-6.633 6.648,-17.478 0,-24.111 L 4.765,-105.208 c -6.648,-6.632 -17.517,-6.632 -24.164,0 L -125.041,0.199 c -6.647,6.633 -6.647,17.478 0,24.111 l 38.257,38.171 c 6.647,6.633 17.516,6.633 24.164,0 l 37.829,-37.745"
             style="fill:none;stroke:#000000;stroke-width:15;stroke-linecap:round;stroke-linejoin:round;stroke-miterlimit:10;stroke-dasharray:none;stroke-opacity:1"
             id="path379" /></g><g
           id="g381"
           transform="translate(187.2461,75.1777)"><path
             d="m 0,0 50.952,50.839 c 19.086,19.043 22.794,14.944 45.332,11.727 10.099,-1.451 24.506,3.929 36.089,11.045"
             style="fill:none;stroke:#000000;stroke-width:15;stroke-linecap:round;stroke-linejoin:round;stroke-miterlimit:10;stroke-dasharray:none;stroke-opacity:1"
             id="path383" /></g><g
           id="g385"
           transform="translate(375.792,307.2261)"><path
             d="m 0,0 c -10.556,10.532 -27.844,10.532 -38.399,0 l -28.159,-28.095 c -10.584,-10.561 -10.584,-27.782 0,-38.314 10.556,-10.561 27.844,-10.561 38.4,0 L 0,-38.314 C 10.584,-27.782 10.584,-10.532 0,0 Z"
             style="fill:none;stroke:#000000;stroke-width:15;stroke-linecap:round;stroke-linejoin:round;stroke-miterlimit:10;stroke-dasharray:none;stroke-opacity:1"
             id="path387" /></g><g
           id="g389"
           transform="translate(312.7148,282.5752)"><path
             d="m 0,0 c 0.771,7.486 -11.611,18.787 -24.335,31.483 l -55.944,55.82 c -5.649,5.636 -14.95,5.636 -20.626,-0.029 L -147.094,41.189 C -157.592,30.714 -162.3,15.314 -161.472,1.48 c 1.284,-21.178 -8.588,-42.584 -37.858,-71.761 l -31.78,-31.71 M -92.746,23.114 c 0.484,-0.512 19.399,-19.357 19.884,-19.841 14.977,-14.46 45.189,-26.927 64.674,-13.037"
             style="fill:none;stroke:#000000;stroke-width:15;stroke-linecap:round;stroke-linejoin:round;stroke-miterlimit:10;stroke-dasharray:none;stroke-opacity:1"
             id="path391" /></g><g
           id="g393"
           transform="translate(219.9687,305.689)"><path
             d="M 0,0 C 16.688,-16.652 12.067,-48.249 -10.299,-70.565"
             style="fill:none;stroke:#000000;stroke-width:15;stroke-linecap:round;stroke-linejoin:round;stroke-miterlimit:10;stroke-dasharray:none;stroke-opacity:1"
             id="path395" /></g></g></g></g></svg>
