<svg width="34" height="34" viewBox="0 0 34 34" fill="none" xmlns="http://www.w3.org/2000/svg">
<path d="M0 17C0 20.3623 0.997032 23.6491 2.86502 26.4447C4.733 29.2403 7.38804 31.4193 10.4944 32.7059C13.6007 33.9926 17.0189 34.3293 20.3165 33.6733C23.6142 33.0174 26.6433 31.3983 29.0208 29.0208C31.3983 26.6433 33.0174 23.6142 33.6733 20.3165C34.3293 17.0189 33.9926 13.6007 32.7059 10.4944C31.4193 7.38804 29.2403 4.733 26.4447 2.86502C23.6491 0.997032 20.3623 0 17 0C12.4928 0.00487486 8.17163 1.79751 4.98457 4.98457C1.79751 8.17163 0.00487486 12.4928 0 17H0ZM22.6667 17C22.6677 18.037 22.2887 19.0385 21.6013 19.8149C21.1891 20.2782 20.7882 20.7173 20.5006 21.0049L16.4999 25.075C16.3718 25.2165 16.2164 25.3306 16.0431 25.4106C15.8698 25.4905 15.6822 25.5346 15.4914 25.5402C15.3006 25.5458 15.1107 25.5128 14.933 25.4432C14.7553 25.3736 14.5935 25.2688 14.4573 25.1351C14.3211 25.0014 14.2133 24.8415 14.1404 24.6651C14.0676 24.4887 14.0311 24.2994 14.0332 24.1086C14.0353 23.9177 14.0759 23.7293 14.1526 23.5545C14.2294 23.3798 14.3406 23.2223 14.4797 23.0917L18.4875 19.0117C18.7524 18.7453 19.1122 18.3487 19.4792 17.9364C19.7074 17.6776 19.8334 17.3444 19.8334 16.9993C19.8334 16.6542 19.7074 16.321 19.4792 16.0622C19.1137 15.6513 18.7538 15.2547 18.4974 14.9968L14.4797 10.9083C14.3406 10.7777 14.2294 10.6202 14.1526 10.4455C14.0759 10.2707 14.0353 10.0823 14.0332 9.89142C14.0311 9.70057 14.0676 9.51127 14.1404 9.33488C14.2133 9.15849 14.3211 8.99864 14.4573 8.86493C14.5935 8.73122 14.7553 8.62641 14.933 8.55679C15.1107 8.48717 15.3006 8.45417 15.4914 8.45978C15.6822 8.46539 15.8698 8.50949 16.0431 8.58944C16.2164 8.66938 16.3718 8.78352 16.4999 8.925L20.5077 13.0036C20.791 13.2869 21.1877 13.7218 21.5971 14.1837C22.2867 14.9597 22.6673 15.9619 22.6667 17Z" fill="#808080"/>
</svg>
