<svg width="100" height="100" viewBox="0 0 100 100" fill="none" xmlns="http://www.w3.org/2000/svg">
<g clip-path="url(#clip0_196_581)">
<path d="M17.2159 87.8996C21.3084 89.3781 25.6291 90.1251 29.9804 90.1067C34.7319 90.0904 39.4471 89.2783 43.9304 87.7043C52.9423 84.5698 60.4251 78.7368 65.0001 71.2799C69.637 63.7227 70.745 55.4047 68.1202 47.8582C68.0693 47.7145 68.0106 47.5737 67.9444 47.4364C68.6031 47.9026 69.3571 48.2168 70.152 48.3562C70.9468 48.4955 71.7627 48.4566 72.5407 48.2422L97.3419 36.2078C97.9023 35.9386 98.4036 35.5605 98.8165 35.0956C99.2293 34.6307 99.5456 34.0883 99.7469 33.5C99.9481 32.9118 100.03 32.2893 99.9887 31.6689C99.9471 31.0486 99.7824 30.4427 99.5044 29.8866L99.1384 29.1547C98.5985 28.0704 97.6591 27.2377 96.5179 26.8317C95.3767 26.4257 94.1225 26.4781 93.019 26.9778L69.6634 37.6418C68.4996 37.9647 67.4741 38.6609 66.7445 39.6233C66.0149 40.5857 65.6215 41.7611 65.6249 42.9688C65.6246 43.5888 65.7303 44.2043 65.9374 44.7887L65.4778 45.0951C59.3468 42.0287 44.4772 44.5008 30.5843 49.3334C29.768 49.6173 28.9542 49.9099 28.1429 50.2112C26.6075 44.5231 30.5808 40.383 30.797 40.1637L28.5833 37.9582C27.0692 39.5956 25.9367 41.548 25.2671 43.6752C24.4765 46.1669 24.4546 48.8389 25.2044 51.3432C22.7044 52.3414 20.3021 53.3967 18.0288 54.4934C16.7681 49.8133 16.6562 44.9844 16.8278 41.495C16.8615 40.7907 16.7541 40.0867 16.5119 39.4245C16.2697 38.7623 15.8977 38.1552 15.4176 37.6388C14.9374 37.1224 14.359 36.7071 13.7161 36.4174C13.0733 36.1277 12.379 35.9694 11.6741 35.9518C10.9693 35.9342 10.268 36.0576 9.61144 36.3148C8.95492 36.572 8.35643 36.9579 7.85111 37.4496C7.34579 37.9414 6.94384 38.5292 6.66887 39.1784C6.3939 39.8277 6.25146 40.5254 6.2499 41.2305V52.2813C6.24944 52.5051 6.16026 52.7196 6.00192 52.8777C5.84357 53.0359 5.62898 53.1248 5.40518 53.125C4.88191 53.1248 4.36377 53.2281 3.88058 53.429C3.39739 53.6298 2.95868 53.9242 2.58971 54.2952C2.22074 54.6663 1.92879 55.1066 1.73066 55.5909C1.53253 56.0752 1.43214 56.594 1.43525 57.1172C1.50453 59.6524 1.9563 62.1626 2.77529 64.5629C0.384473 67.1225 -0.470605 69.4426 0.234278 71.4698C2.85947 79.0162 8.89033 84.8512 17.2159 87.8996ZM42.9038 84.7518C34.5714 87.65 25.8304 87.726 18.2903 84.9653C12.7192 82.9254 8.30986 79.5149 5.47783 75.1342C7.11162 75.4539 8.77414 75.6036 10.4388 75.5807C11.3959 75.5807 12.4181 75.5435 13.5052 75.469C18.8925 75.0994 25.3761 73.8141 32.1804 71.794C32.3171 71.8158 36.0429 70.5953 37.7714 69.9942C41.7141 68.6297 45.5835 67.0619 49.364 65.2971L49.4437 65.26C53.5313 63.3364 57.1894 61.2905 60.1972 59.2282C62.8883 57.3831 64.9154 55.6371 66.2784 53.9901C67.454 66.468 57.922 79.5282 42.9038 84.7518ZM59.1708 53.3065C58.8415 56.1073 58.2931 56.6842 58.27 56.7075L58.3003 56.7377C57.0067 57.6186 55.588 58.4971 54.062 59.3641C55.0816 57.3459 55.7552 55.1709 56.0546 52.9297C56.1061 52.5513 56.293 52.2043 56.5805 51.953C56.8681 51.7017 57.2369 51.563 57.6189 51.5625C57.8394 51.5625 58.0575 51.6091 58.2588 51.6994C58.46 51.7896 58.6399 51.9215 58.7865 52.0863C58.9332 52.2511 59.0433 52.445 59.1096 52.6554C59.1759 52.8658 59.1969 53.0878 59.1712 53.3069L59.1708 53.3065ZM94.3069 29.8242C94.6745 29.6586 95.0919 29.6417 95.4716 29.7773C95.8513 29.9128 96.1637 30.1902 96.3433 30.5512L96.7093 31.283C96.8023 31.469 96.8572 31.6717 96.8709 31.8793C96.8845 32.0868 96.8566 32.2949 96.7888 32.4915C96.721 32.6881 96.6146 32.8692 96.4759 33.0241C96.3371 33.179 96.1689 33.3047 95.981 33.3938L76.5597 42.8545C76.5438 42.0819 76.3641 41.3215 76.0323 40.6236C75.7006 39.9257 75.2244 39.3062 74.6353 38.8061L94.3069 29.8242ZM71.0937 40.625C71.5826 40.6244 72.0594 40.777 72.4573 41.0612C72.8551 41.3454 73.154 41.7471 73.312 42.2098C73.4699 42.6725 73.479 43.1731 73.338 43.6412C73.197 44.1094 72.9129 44.5216 72.5257 44.8201L71.6663 45.2391C71.3884 45.3124 71.0988 45.3311 70.8138 45.2942L71.1798 45.0502C71.3527 44.9374 71.5016 44.7914 71.6177 44.6207C71.7339 44.45 71.8151 44.2579 71.8566 44.0556C71.8981 43.8534 71.8991 43.6449 71.8595 43.4422C71.8199 43.2395 71.7405 43.0467 71.626 42.8749C71.5115 42.7031 71.364 42.5557 71.1921 42.4412C71.0203 42.3268 70.8274 42.2475 70.6248 42.208C70.4221 42.1685 70.2136 42.1696 70.0113 42.2112C69.8091 42.2527 69.6171 42.334 69.4464 42.4502L68.7534 42.9121C68.7685 42.3011 69.0216 41.7202 69.4587 41.293C69.8958 40.8658 70.4825 40.6261 71.0937 40.625ZM28.487 57.2504L30.8878 55.2498C30.3204 54.5739 29.8108 53.8515 29.3644 53.0903C30.1099 52.8151 30.8604 52.5459 31.6104 52.2848C40.1554 49.3127 48.4855 47.4272 55.064 46.976C58.1251 46.7662 60.7054 46.8885 62.5249 47.3301C64.0056 47.6891 64.944 48.241 65.1677 48.8842C65.3913 49.5274 64.9978 50.5424 64.0599 51.7428C63.517 52.4205 62.9208 53.0535 62.2769 53.636C62.4088 52.4087 62.052 51.1789 61.2838 50.2127C60.5156 49.2465 59.3978 48.6218 58.1723 48.4738C56.9469 48.3258 55.7125 48.6664 54.7363 49.4218C53.7602 50.1773 53.1208 51.2868 52.9567 52.5102C52.163 58.3522 48.7095 61.7567 47.7462 62.6043C44.1551 64.267 40.4829 65.7483 36.7433 67.0426C35.1493 67.597 33.5662 68.1128 31.994 68.5899C25.8208 67.3985 21.456 63.668 19.0118 57.4867C21.3423 56.35 23.8243 55.2571 26.4108 54.225C27.0023 55.299 27.6977 56.3123 28.487 57.2504ZM4.80459 56.4996C4.88307 56.4202 4.97662 56.3572 5.07974 56.3143C5.18286 56.2715 5.2935 56.2496 5.40518 56.25C6.45765 56.2488 7.46667 55.8302 8.21088 55.086C8.9551 54.3418 9.37371 53.3328 9.3749 52.2803V41.2305C9.37527 40.6556 9.60379 40.1044 10.0103 39.6979C10.4168 39.2914 10.968 39.0629 11.5429 39.0625C11.8368 39.0627 12.1276 39.1226 12.3976 39.2386C12.6676 39.3546 12.9113 39.5243 13.1137 39.7374C13.3161 39.9505 13.473 40.2026 13.575 40.4782C13.677 40.7538 13.7219 41.0473 13.7069 41.3408C13.4835 45.8805 13.7157 52.559 16.0911 58.5951C17.4593 62.0717 19.3944 64.9327 21.8425 67.0977C23.2366 68.3272 24.8057 69.3427 26.4983 70.111C22.9248 71.0356 19.2917 71.7126 15.6249 72.1369L14.3196 71.8963C10.8298 71.3147 8.1794 69.1098 6.4419 65.3432C5.28194 62.7441 4.6428 59.9427 4.56065 57.0977C4.55956 56.9868 4.58056 56.8768 4.62245 56.7741C4.66433 56.6714 4.72625 56.5781 4.80459 56.4996ZM3.18604 70.4432C2.96982 69.8219 3.32764 68.8742 4.16104 67.7621C5.08343 69.5144 6.3439 71.0666 7.86963 72.3289C7.18266 72.2648 6.50086 72.1539 5.829 71.9969C4.34912 71.6379 3.41084 71.0866 3.18662 70.444V70.443L3.18604 70.4432Z" fill="#616161"/>
<path d="M14.0625 20.3125C13.1354 20.3125 12.2291 20.5874 11.4583 21.1025C10.6874 21.6176 10.0866 22.3496 9.73182 23.2062C9.37703 24.0627 9.2842 25.0052 9.46507 25.9145C9.64594 26.8238 10.0924 27.659 10.7479 28.3146C11.4035 28.9701 12.2387 29.4166 13.148 29.5974C14.0573 29.7783 14.9998 29.6855 15.8563 29.3307C16.7129 28.9759 17.4449 28.3751 17.96 27.6042C18.4751 26.8334 18.75 25.9271 18.75 25C18.7486 23.7572 18.2543 22.5658 17.3755 21.687C16.4967 20.8082 15.3053 20.3139 14.0625 20.3125ZM14.0625 26.5625C13.7535 26.5625 13.4514 26.4709 13.1944 26.2992C12.9375 26.1275 12.7372 25.8835 12.6189 25.5979C12.5007 25.3124 12.4697 24.9983 12.53 24.6952C12.5903 24.3921 12.7391 24.1137 12.9576 23.8951C13.1762 23.6766 13.4546 23.5278 13.7577 23.4675C14.0608 23.4072 14.3749 23.4382 14.6604 23.5564C14.946 23.6747 15.19 23.875 15.3617 24.1319C15.5334 24.3889 15.625 24.691 15.625 25C15.6245 25.4143 15.4598 25.8114 15.1668 26.1043C14.8739 26.3973 14.4768 26.562 14.0625 26.5625Z" fill="#616161"/>
<path d="M29.6875 14.0625C29.6875 13.1354 29.4126 12.2291 28.8975 11.4583C28.3824 10.6874 27.6504 10.0866 26.7938 9.73182C25.9373 9.37703 24.9948 9.2842 24.0855 9.46507C23.1762 9.64594 22.341 10.0924 21.6854 10.7479C21.0299 11.4035 20.5834 12.2387 20.4026 13.148C20.2217 14.0573 20.3145 14.9998 20.6693 15.8563C21.0241 16.7129 21.6249 17.4449 22.3958 17.96C23.1666 18.4751 24.0729 18.75 25 18.75C26.2428 18.7486 27.4343 18.2543 28.313 17.3755C29.1918 16.4967 29.6861 15.3053 29.6875 14.0625ZM23.4375 14.0625C23.4375 13.7535 23.5291 13.4514 23.7008 13.1944C23.8725 12.9375 24.1165 12.7372 24.4021 12.6189C24.6876 12.5007 25.0017 12.4697 25.3048 12.53C25.6079 12.5903 25.8863 12.7391 26.1049 12.9576C26.3234 13.1762 26.4722 13.4546 26.5325 13.7577C26.5928 14.0608 26.5618 14.3749 26.4436 14.6604C26.3253 14.946 26.125 15.19 25.8681 15.3617C25.6111 15.5334 25.309 15.625 25 15.625C24.5857 15.6245 24.1886 15.4598 23.8957 15.1668C23.6027 14.8739 23.438 14.4768 23.4375 14.0625Z" fill="#616161"/>
<path d="M20.3125 31.25H23.4375V34.375H20.3125V31.25Z" fill="#616161"/>
<path d="M18.75 45.3125H21.875V48.4375H18.75V45.3125Z" fill="#616161"/>
<path d="M28.125 59.375H31.25V62.5H28.125V59.375Z" fill="#616161"/>
<path d="M3.125 29.6875H6.25V32.8125H3.125V29.6875Z" fill="#616161"/>
<path d="M16.3209 71.6125L18.0543 69.0125C14.2355 66.4666 14.067 64.1211 14.0625 64.0225C14.0639 64.0488 14.0625 64.0625 14.0625 64.0625H10.9375C10.9375 64.468 11.0885 68.125 16.3209 71.6125Z" fill="#616161"/>
<path d="M31.7361 24.158C32.3816 23.1816 33.1119 22.264 33.9188 21.416L31.7076 19.2076C31.4977 19.4178 26.5625 24.4141 26.5625 29.6875H29.6875C29.6875 28.0942 30.3959 26.1821 31.7361 24.158Z" fill="#616161"/>
</g>
<defs>
<clipPath id="clip0_196_581">
<rect width="100" height="100" fill="white"/>
</clipPath>
</defs>
</svg>
