<svg xmlns="http://www.w3.org/2000/svg" version="1.1" xmlns:xlink="http://www.w3.org/1999/xlink" xmlns:svgjs="http://svgjs.com/svgjs" width="512" height="512" x="0" y="0" viewBox="0 0 28 28" style="enable-background:new 0 0 512 512" xml:space="preserve"><g><g id="Layer_2" data-name="Layer 2"><path d="m23.208 17.311a1.993 1.993 0 0 0 -1.359.54l-2.349-1.334v-5.117l2.323-1.341a2 2 0 1 0 -.615-1.438 1.941 1.941 0 0 0 .1.583l-2.308 1.332-4.5-2.6v-2.504a2 2 0 1 0 -1-.006v2.512l-4.5 2.598-2.235-1.29a1.962 1.962 0 0 0 .11-.624 2.017 2.017 0 1 0 -.65 1.466l2.275 1.312v5.114l-2.3 1.309a1.982 1.982 0 0 0 -1.324-.512 2 2 0 1 0 2 2 1.97 1.97 0 0 0 -.119-.654l2.172-1.235 4.572 2.64v2.512a2 2 0 1 0 1-.006v-2.506l4.57-2.639 2.243 1.277a1.978 1.978 0 0 0 -.106.614 2 2 0 1 0 2-2zm0-9.689a1 1 0 1 1 -1 1 1 1 0 0 1 1-1zm-10.198-4.122a1 1 0 1 1 1 1 1 1 0 0 1 -1-1zm.99 5.3 4 2.309-4 2.31-4-2.31zm-9.125.818a1 1 0 1 1 1-1 1 1 0 0 1 -1 1.004zm0 10.689a1 1 0 1 1 1-1 1 1 0 0 1 -1 1.004zm4.625-8.328 4 2.309v4.62l-4-2.31zm5.51 12.521a1 1 0 1 1 -1-1 1 1 0 0 1 1 1zm-.51-5.592v-4.62l4-2.309v4.621zm8.708 1.4a1 1 0 1 1 1-1 1 1 0 0 1 -1 1.003z" fill="#616161" data-original="#000000"></path></g></g></svg>