<svg xmlns="http://www.w3.org/2000/svg" version="1.1" xmlns:xlink="http://www.w3.org/1999/xlink" xmlns:svgjs="http://svgjs.com/svgjs" width="512" height="512" x="0" y="0" viewBox="0 0 682.66669 682.66669" style="enable-background:new 0 0 512 512" xml:space="preserve" class=""><g><defs id="defs3025"><clipPath clipPathUnits="userSpaceOnUse" id="clipPath3035"><path d="M 0,512 H 512 V 0 H 0 Z" id="path3033" fill="#616161" data-original="#000000"></path></clipPath></defs><g id="g3027" transform="matrix(1.3333333,0,0,-1.3333333,0,682.66667)"><g id="g3029"><g id="g3031" clip-path="url(#clipPath3035)"><g id="g3037" transform="translate(443.7959,244.0317)"><path d="m 0,0 c 2.043,10.649 2.988,22.627 2.988,36.987 0,23.804 -6.515,42.963 -11.147,55.726" style="stroke-width:15;stroke-linecap:round;stroke-linejoin:round;stroke-miterlimit:10;stroke-dasharray:none;stroke-opacity:1" id="path3039" fill="none" stroke="#616161" stroke-width="15" stroke-linecap="round" stroke-linejoin="round" stroke-miterlimit="10" stroke-dasharray="none" stroke-opacity="" data-original="#000000"></path></g><g id="g3041" transform="translate(184.4961,68.7681)"><path d="m 0,0 c 31.645,-1.079 44.655,-29.248 54.039,-53.226 1.9,-4.854 6.581,-8.042 11.794,-8.042 h 148.063 c 8.891,0 15.018,8.913 11.828,17.211 -14.44,37.562 -45.755,97.653 -23.135,125.228 20.963,25.557 35.6,43.1 45.133,61.118" style="stroke-width:15;stroke-linecap:round;stroke-linejoin:round;stroke-miterlimit:10;stroke-dasharray:none;stroke-opacity:1" id="path3043" fill="none" stroke="#616161" stroke-width="15" stroke-linecap="round" stroke-linejoin="round" stroke-miterlimit="10" stroke-dasharray="none" stroke-opacity="" data-original="#000000"></path></g><g id="g3045" transform="translate(105.8555,336.7451)"><path d="m 0,0 c -2.29,-8.197 -3.783,-16.921 -4.387,-26.169 -1.008,-15.45 -7.667,-22.915 -9.172,-29.375 -1.833,-7.871 6.564,-15.953 9.876,-23.727 1.376,-3.228 1.128,-6.945 -0.59,-10.005 -6.868,-12.225 -15.485,-20.541 -25.793,-28.477 -6.007,-4.624 -10.589,-8.756 -10.574,-15.955 0.019,-8.397 5.75,-12.609 16.56,-17.354 12.657,-5.555 4.947,-15.23 0.301,-19.721 -5.896,-5.698 -5.674,-15.434 0.876,-20.364 2.416,-1.819 5.396,-2.93 8.55,-2.93 -6.433,-2.962 -8.629,-6.976 -8.95,-10.728 -0.449,-5.279 2.859,-10.15 7.795,-12.076 1.68,-0.656 3.594,-1.558 5.311,-2.746 2.153,-1.492 3.479,-5.028 1.986,-7.697 -2.771,-4.953 -6.549,-10.885 -3.973,-21.353 3.973,-16.138 17.513,-22.108 31.097,-24.331 5.491,-0.899 14.37,-0.182 24.751,1.108" style="stroke-width:15;stroke-linecap:round;stroke-linejoin:round;stroke-miterlimit:10;stroke-dasharray:none;stroke-opacity:1" id="path3047" fill="none" stroke="#616161" stroke-width="15" stroke-linecap="round" stroke-linejoin="round" stroke-miterlimit="10" stroke-dasharray="none" stroke-opacity="" data-original="#000000"></path></g><g id="g3049" transform="translate(108.9033,390.9072)"><path d="m 0,0 c -5.101,-8.549 -8.03,-18.542 -8.03,-29.222 0,-25.308 16.579,-46.759 39.365,-54.282 l -0.342,-5.746 c -0.537,-14.939 4.863,-27.375 13.563,-36.544 m 30.403,-16.443 c 19.536,-3.902 41.175,1.824 54.931,20.055 14.337,-16.496 42.537,-18.267 59.721,-5.123 m 49.029,-16.088 c 27.922,0.627 55.047,21.402 53.875,54.145 l -0.341,5.744 c 22.786,7.523 40.05,28.974 40.05,54.282 0,12.159 -3.798,23.427 -10.271,32.688 m -30.792,52.475 c -7.903,21.654 -28.682,37.113 -53.072,37.113 -9.956,0 -19.305,-2.585 -27.428,-7.108 -9.849,16.552 -27.907,27.647 -48.564,27.647 -20.658,0 -38.716,-11.095 -48.565,-27.647 -8.123,4.523 -17.471,7.108 -27.428,7.108 -26.178,0 -48.197,-17.81 -54.6,-41.974" style="stroke-width:15;stroke-linecap:round;stroke-linejoin:round;stroke-miterlimit:10;stroke-dasharray:none;stroke-opacity:1" id="path3051" fill="none" stroke="#616161" stroke-width="15" stroke-linecap="round" stroke-linejoin="round" stroke-miterlimit="10" stroke-dasharray="none" stroke-opacity="" data-original="#000000"></path></g><g id="g3053" transform="translate(216.1768,394.1289)"><path d="M 0,0 24.823,-5.741 44.302,20.23" style="stroke-width:15;stroke-linecap:round;stroke-linejoin:round;stroke-miterlimit:10;stroke-dasharray:none;stroke-opacity:1" id="path3055" fill="none" stroke="#616161" stroke-width="15" stroke-linecap="round" stroke-linejoin="round" stroke-miterlimit="10" stroke-dasharray="none" stroke-opacity="" data-original="#000000"></path></g><g id="g3057" transform="translate(339.8945,382.1626)"><path d="m 0,0 -15.66,-58.55 h -106.469 l -15.64,58.473" style="stroke-width:15;stroke-linecap:round;stroke-linejoin:round;stroke-miterlimit:10;stroke-dasharray:none;stroke-opacity:1" id="path3059" fill="none" stroke="#616161" stroke-width="15" stroke-linecap="round" stroke-linejoin="round" stroke-miterlimit="10" stroke-dasharray="none" stroke-opacity="" data-original="#000000"></path></g><g id="g3061" transform="translate(281.46,414.4409)"><path d="m 0,0 19.54,-26.053 24.823,5.741" style="stroke-width:15;stroke-linecap:round;stroke-linejoin:round;stroke-miterlimit:10;stroke-dasharray:none;stroke-opacity:1" id="path3063" fill="none" stroke="#616161" stroke-width="15" stroke-linecap="round" stroke-linejoin="round" stroke-miterlimit="10" stroke-dasharray="none" stroke-opacity="" data-original="#000000"></path></g><g id="g3065" transform="translate(134.1299,454.5308)"><path d="m 0,0 7.818,-15.841 c 0.437,-0.886 1.282,-1.499 2.259,-1.641 l 17.482,-2.54 c 2.461,-0.358 3.443,-3.382 1.663,-5.118 L 16.571,-37.47 c -0.707,-0.69 -1.029,-1.682 -0.863,-2.655 l 2.986,-17.412 c 0.421,-2.451 -2.151,-4.319 -4.352,-3.162 l -15.636,8.22 c -0.874,0.459 -1.919,0.459 -2.793,0 l -21.083,-11.049 4.081,23.403 c 0.167,0.973 -0.156,1.965 -0.863,2.655 l -12.65,12.33 c -1.781,1.736 -0.798,4.76 1.663,5.118 l 17.481,2.54 c 0.978,0.142 1.822,0.755 2.26,1.641 L -5.381,0 C -4.28,2.23 -1.101,2.23 0,0 Z" style="stroke-width:15;stroke-linecap:round;stroke-linejoin:round;stroke-miterlimit:10;stroke-dasharray:none;stroke-opacity:1" id="path3067" fill="none" stroke="#616161" stroke-width="15" stroke-linecap="round" stroke-linejoin="round" stroke-miterlimit="10" stroke-dasharray="none" stroke-opacity="" data-original="#000000"></path></g><g id="g3069" transform="translate(330.8896,291.6245)"><path d="m 0,0 7.817,-15.841 c 0.438,-0.886 1.283,-1.499 2.259,-1.641 l 17.483,-2.54 c 2.46,-0.358 3.443,-3.382 1.662,-5.118 l -12.65,-12.33 c -0.707,-0.69 -1.03,-1.683 -0.863,-2.656 l 2.986,-17.411 c 0.421,-2.451 -2.151,-4.319 -4.352,-3.163 l -15.637,8.221 c -0.874,0.459 -1.918,0.459 -2.792,0 L -19.723,-60.7 c -2.201,-1.156 -4.773,0.712 -4.353,3.163 l 2.986,17.411 c 0.167,0.973 -0.155,1.966 -0.862,2.656 l -12.651,12.33 c -1.78,1.736 -0.797,4.76 1.664,5.118 l 17.481,2.54 c 0.978,0.142 1.822,0.755 2.259,1.641 L -5.381,0 C -4.28,2.229 -1.101,2.229 0,0 Z" style="stroke-width:15;stroke-linecap:round;stroke-linejoin:round;stroke-miterlimit:10;stroke-dasharray:none;stroke-opacity:1" id="path3071" fill="none" stroke="#616161" stroke-width="15" stroke-linecap="round" stroke-linejoin="round" stroke-miterlimit="10" stroke-dasharray="none" stroke-opacity="" data-original="#000000"></path></g><g id="g3073" transform="translate(411.1299,458.0386)"><path d="m 0,0 7.818,-15.841 c 0.437,-0.886 1.282,-1.499 2.259,-1.641 l 17.482,-2.54 c 2.461,-0.358 3.443,-3.382 1.663,-5.118 L 16.571,-37.47 c -0.707,-0.69 -1.029,-1.682 -0.863,-2.656 l 3.922,-23.402 -20.924,11.049 c -0.874,0.459 -1.919,0.459 -2.793,0 l -15.636,-8.22 c -2.201,-1.157 -4.773,0.711 -4.352,3.162 l 2.986,17.411 c 0.167,0.974 -0.156,1.966 -0.863,2.656 l -12.65,12.33 c -1.781,1.736 -0.798,4.76 1.663,5.118 l 17.481,2.54 c 0.978,0.142 1.822,0.755 2.26,1.641 L -5.381,0 C -4.28,2.23 -1.101,2.23 0,0 Z" style="stroke-width:15;stroke-linecap:round;stroke-linejoin:round;stroke-miterlimit:10;stroke-dasharray:none;stroke-opacity:1" id="path3075" fill="none" stroke="#616161" stroke-width="15" stroke-linecap="round" stroke-linejoin="round" stroke-miterlimit="10" stroke-dasharray="none" stroke-opacity="" data-original="#000000"></path></g><g id="g3077" transform="translate(289.1787,353.6123)"><path d="M 0,0 H 42.321" style="stroke-width:15;stroke-linecap:round;stroke-linejoin:round;stroke-miterlimit:10;stroke-dasharray:none;stroke-opacity:1" id="path3079" fill="none" stroke="#616161" stroke-width="15" stroke-linecap="round" stroke-linejoin="round" stroke-miterlimit="10" stroke-dasharray="none" stroke-opacity="" data-original="#000000"></path></g><g id="g3081" transform="translate(210.5,353.6123)"><path d="M 0,0 H 43.679" style="stroke-width:15;stroke-linecap:round;stroke-linejoin:round;stroke-miterlimit:10;stroke-dasharray:none;stroke-opacity:1" id="path3083" fill="none" stroke="#616161" stroke-width="15" stroke-linecap="round" stroke-linejoin="round" stroke-miterlimit="10" stroke-dasharray="none" stroke-opacity="" data-original="#000000"></path></g><g id="g3085" transform="translate(287.8213,428.3877)"><path d="m 0,0 c 0,-9.291 -7.531,-16.821 -16.821,-16.821 -9.29,0 -16.822,7.53 -16.822,16.821 0,9.29 7.532,16.821 16.822,16.821 C -7.531,16.821 0,9.29 0,0 Z" style="stroke-width:15;stroke-linecap:round;stroke-linejoin:round;stroke-miterlimit:10;stroke-dasharray:none;stroke-opacity:1" id="path3087" fill="none" stroke="#616161" stroke-width="15" stroke-linecap="round" stroke-linejoin="round" stroke-miterlimit="10" stroke-dasharray="none" stroke-opacity="" data-original="#000000"></path></g><g id="g3089" transform="translate(359.4658,399.5532)"><path d="m 0,0 c 0,-9.29 -7.531,-16.821 -16.821,-16.821 -9.29,0 -16.822,7.531 -16.822,16.821 0,9.29 7.532,16.821 16.822,16.821 C -7.531,16.821 0,9.29 0,0 Z" style="stroke-width:15;stroke-linecap:round;stroke-linejoin:round;stroke-miterlimit:10;stroke-dasharray:none;stroke-opacity:1" id="path3091" fill="none" stroke="#616161" stroke-width="15" stroke-linecap="round" stroke-linejoin="round" stroke-miterlimit="10" stroke-dasharray="none" stroke-opacity="" data-original="#000000"></path></g><g id="g3093" transform="translate(216.1768,399.5532)"><path d="m 0,0 c 0,-9.29 -7.531,-16.821 -16.821,-16.821 -9.29,0 -16.822,7.531 -16.822,16.821 0,9.29 7.532,16.821 16.822,16.821 C -7.531,16.821 0,9.29 0,0 Z" style="stroke-width:15;stroke-linecap:round;stroke-linejoin:round;stroke-miterlimit:10;stroke-dasharray:none;stroke-opacity:1" id="path3095" fill="none" stroke="#616161" stroke-width="15" stroke-linecap="round" stroke-linejoin="round" stroke-miterlimit="10" stroke-dasharray="none" stroke-opacity="" data-original="#000000"></path></g><g id="g3097" transform="translate(91.5029,142.6685)"><path d="M 0,0 C 11.106,0 21.575,-0.124 32.809,5.012" style="stroke-width:15;stroke-linecap:round;stroke-linejoin:round;stroke-miterlimit:10;stroke-dasharray:none;stroke-opacity:1" id="path3099" fill="none" stroke="#616161" stroke-width="15" stroke-linecap="round" stroke-linejoin="round" stroke-miterlimit="10" stroke-dasharray="none" stroke-opacity="" data-original="#000000"></path></g></g></g></g></g></svg>