<svg width="96" height="48" viewBox="0 0 96 48" fill="none" xmlns="http://www.w3.org/2000/svg">
<path d="M31.9999 33.4023V14.9663H32.9999V17.8663C33.118 17.7378 33.2271 17.6012 33.3263 17.4575C34.1615 15.7247 35.9231 14.6311 37.8463 14.6527C40.1263 14.5847 41.9791 15.4287 43.0679 17.4575C43.7608 18.7179 44.1421 20.1258 44.1799 21.5635C44.2178 23.0013 43.9111 24.4273 43.2855 25.7223C42.2711 27.9959 39.7655 29.1263 37.0831 28.7111C36.2484 28.6402 35.4446 28.3613 34.7454 27.8998C34.0461 27.4384 33.4735 26.8091 33.0799 26.0695V33.4015L31.9999 33.4023ZM32.9999 21.4879L33.2239 23.6527C33.6191 26.1167 35.0759 27.5727 37.3631 27.8463C38.4372 28.0229 39.5393 27.8216 40.4816 27.2766C41.4238 26.7316 42.1479 25.8766 42.5303 24.8575C43.4199 22.7375 43.3543 20.3375 42.3543 18.2671C41.9461 17.3536 41.2517 16.5978 40.3759 16.1138C39.5001 15.6299 38.4906 15.4442 37.4999 15.5847C36.5701 15.6524 35.6843 16.008 34.9658 16.6021C34.2472 17.1962 33.7315 17.9993 33.4903 18.8999C33.2774 19.7522 33.1136 20.6161 32.9999 21.4871V21.4879ZM64.5983 23.9935C64.4467 25.2916 63.8288 26.4904 62.8594 27.367C61.8901 28.2436 60.6355 28.7383 59.3287 28.7591C55.1351 28.9703 53.1671 26.1855 52.8543 22.9719C52.6368 21.2268 52.9201 19.4558 53.6711 17.8655C54.1939 16.7747 55.0503 15.8785 56.1164 15.3069C57.1825 14.7353 58.4029 14.518 59.6007 14.6863C60.7395 14.7831 61.819 15.2356 62.6865 15.9797C63.5539 16.7239 64.1654 17.722 64.4343 18.8327C64.6474 19.8446 64.8042 20.8675 64.9039 21.8967H53.8903C53.6863 24.8103 55.2519 27.1527 57.4711 27.7175C60.2351 28.3975 62.5975 27.1999 63.4551 24.5719C63.6455 23.8975 63.9927 23.8023 64.6055 23.9935H64.5983ZM53.8823 20.9639H63.7335C63.6719 17.8599 61.7391 15.6039 59.1175 15.5783C56.1575 15.5303 54.0111 17.6959 53.8823 20.9639ZM66.6343 24.0615H67.5999C67.6354 24.7729 67.8664 25.4607 68.2676 26.0493C68.6687 26.6379 69.2244 27.1044 69.8736 27.3975C70.6886 27.7644 71.576 27.9426 72.4695 27.9191C73.363 27.8955 74.2397 27.6708 75.0343 27.2615C75.4675 27.0665 75.8304 26.7432 76.0739 26.3353C76.3174 25.9274 76.4298 25.4546 76.396 24.9807C76.4209 24.5238 76.2961 24.0711 76.0406 23.6914C75.785 23.3117 75.4127 23.0257 74.9799 22.8767C73.9175 22.4815 72.7879 22.2639 71.7056 21.9167C70.5792 21.5961 69.4779 21.1934 68.4103 20.7119C66.6663 19.8607 66.5583 16.5455 68.5327 15.4959C69.5437 14.9255 70.6814 14.6172 71.8421 14.5993C73.0028 14.5815 74.1495 14.8545 75.1775 15.3935C76.4527 16.0975 77.1575 17.5191 76.9479 18.9615H76.1199C76.1199 18.9215 76.0447 18.8863 76.0447 18.8455C75.9423 16.2055 73.7231 15.3799 71.3408 15.6119C70.6208 15.6919 69.9383 15.9095 69.2983 16.2311C68.9136 16.4068 68.593 16.6978 68.3809 17.0637C68.1688 17.4296 68.0756 17.8524 68.1143 18.2735C68.1152 18.695 68.2465 19.1059 68.4903 19.4497C68.7341 19.7935 69.0784 20.0534 69.4759 20.1935C70.5159 20.5751 71.6199 20.8199 72.6959 21.1191L75.296 21.7991C75.8869 21.9931 76.4051 22.3619 76.7819 22.8567C77.1587 23.3515 77.3765 23.9491 77.4063 24.5703C77.6143 25.9663 76.9023 27.3383 75.6432 27.9743C73.3695 29.2607 69.6247 28.9207 67.9567 27.2943C67.1031 26.4359 66.6271 25.2703 66.6367 24.0607L66.6343 24.0615ZM89.6583 18.9623H88.7527C88.7527 18.8399 88.7047 18.7223 88.6911 18.6287C88.6767 17.9499 88.4293 17.2967 87.9904 16.7786C87.5516 16.2605 86.9479 15.9091 86.2807 15.7831C85.0222 15.4222 83.6796 15.4868 82.4615 15.9671C81.9799 16.105 81.5558 16.395 81.2527 16.7939C80.9496 17.1927 80.7838 17.679 80.7799 18.1799C80.7627 18.6718 80.9159 19.1546 81.2135 19.5466C81.5112 19.9385 81.9351 20.2157 82.4135 20.3311L86.5527 21.3935C87.0004 21.5009 87.4412 21.635 87.8727 21.7951C89.1927 22.2751 90.0887 23.5007 90.1287 24.9015C90.1485 25.5872 89.9605 26.2628 89.5892 26.8397C89.218 27.4165 88.681 27.8675 88.0487 28.1335C87.088 28.5699 86.0468 28.8008 84.9917 28.8114C83.9365 28.8221 82.8908 28.6121 81.9215 28.1951C81.1244 27.8514 80.4517 27.2717 79.994 26.5341C79.5363 25.7965 79.3156 24.9364 79.3615 24.0695H80.2463C80.5791 25.6735 81.6807 27.0095 83.1919 27.6415C84.7031 28.2735 86.4287 28.1183 87.8031 27.2287C88.2155 27.0143 88.5578 26.6862 88.7895 26.2832C89.0211 25.8803 89.1325 25.4194 89.1103 24.9551C89.1309 24.4978 89.0017 24.0463 88.7424 23.6691C88.4831 23.2918 88.1078 23.0094 87.6735 22.8647C86.6111 22.4695 85.4815 22.2591 84.3991 21.9047C83.2665 21.589 82.1585 21.1909 81.0839 20.7135C79.3815 19.8759 79.2455 16.5879 81.1863 15.5391C82.2098 14.9447 83.3698 14.6254 84.5532 14.6122C85.7367 14.599 86.9035 14.8925 87.9399 15.4639C88.5328 15.8178 89.0099 16.3363 89.3133 16.9564C89.6167 17.5766 89.7333 18.2716 89.6487 18.9567L89.6583 18.9623ZM30.3543 28.4263C29.9979 28.5611 29.6044 28.5608 29.2482 28.4253C28.8919 28.2899 28.5976 28.0287 28.4207 27.6911L24.9007 22.8231L24.3903 22.1431L20.3055 27.6983C20.1391 28.0214 19.8607 28.2728 19.5223 28.4056C19.184 28.5384 18.8089 28.5435 18.4671 28.4199L23.7295 21.3599L18.8335 14.9807C19.5599 14.7183 20.3695 15.0031 20.7735 15.6607L24.4215 20.5887L28.0911 15.6799C28.2589 15.3624 28.5375 15.1176 28.8739 14.9921C29.2104 14.8666 29.5812 14.8691 29.9159 14.9991L28.0159 17.5199L25.4423 20.8695C25.3709 20.9333 25.3138 21.0115 25.2746 21.0989C25.2355 21.1863 25.2153 21.281 25.2153 21.3767C25.2153 21.4725 25.2355 21.5672 25.2746 21.6546C25.3138 21.742 25.3709 21.8202 25.4423 21.8839L30.3439 28.4263H30.3543ZM52.6983 14.9127V15.8727C52.0098 15.8276 51.3194 15.9273 50.6717 16.1655C50.0241 16.4036 49.4335 16.7749 48.9383 17.2554C48.443 17.7359 48.0539 18.315 47.7963 18.9551C47.5386 19.5953 47.4181 20.2823 47.4423 20.9719C47.4423 23.2141 47.4423 25.4562 47.4423 27.6983V28.4607H46.4687V14.9727H47.4287V17.7367C48.6063 15.7207 50.4239 14.9727 52.7047 14.9183L52.6983 14.9127ZM5.86635 21.2719L6.29515 19.1543C7.47275 14.9671 12.2727 13.2247 15.5751 15.8183C17.5087 17.3367 17.9911 19.4879 17.8967 21.9119H7.00315C6.82715 26.2415 9.95115 28.8559 13.9471 27.5215C15.2639 27.0415 16.2551 25.9471 16.5815 24.5871C16.7927 23.9071 17.1415 23.7903 17.7799 23.9871C17.6735 24.8161 17.3804 25.61 16.9229 26.3094C16.4654 27.0087 15.8552 27.5952 15.1383 28.0247C13.954 28.6725 12.5952 28.9291 11.2562 28.758C9.91715 28.5868 8.66654 27.9967 7.68315 27.0719C6.71035 25.9783 6.12315 24.5959 6.00875 23.1359C6.00875 22.8959 5.92875 22.6719 5.87275 22.4559C5.86741 22.0522 5.86475 21.6575 5.86475 21.2719H5.86635ZM7.01675 20.9791H16.8679C16.8063 17.8407 14.8255 15.6143 12.1839 15.5935C9.24315 15.5535 7.13915 17.7311 7.00955 20.9655L7.01675 20.9791Z" fill="#808080"/>
</svg>
