<svg width="100" height="100" viewBox="0 0 100 100" fill="none" xmlns="http://www.w3.org/2000/svg">
<path d="M98.3471 16.5223H91.7357V6.60894C91.7356 6.17074 91.5615 5.75049 91.2515 5.44064C90.9416 5.13078 90.5211 4.95671 90.0828 4.9567H53.7197C53.2813 4.95671 52.8609 5.13078 52.5509 5.44064C52.2409 5.75049 52.0668 6.17074 52.0668 6.60894V29.7402C52.0668 30.1784 52.2409 30.5987 52.5509 30.9085C52.8609 31.2184 53.2813 31.3924 53.7197 31.3924H66.9426V34.8161C66.002 35.0228 65.1416 35.4981 64.4661 36.1843C63.7906 36.8705 63.329 37.7381 63.1375 38.6816L62.2818 42.9581H55.3725C54.0579 42.9596 52.7975 43.4823 51.8679 44.4115C50.9383 45.3408 50.4154 46.6007 50.4139 47.9148V59.733C49.2677 59.1483 48.0629 58.6862 46.8197 58.3544L33.8852 54.9066V48.7162C37.173 45.9896 39.4028 42.199 40.1881 38.0014H43.8507C45.1525 37.9999 46.4006 37.4823 47.3212 36.5621C48.2417 35.6419 48.7595 34.3943 48.7611 33.093V26.3874C48.7612 25.6938 48.6139 25.0081 48.3289 24.3757C48.044 23.7433 47.6279 23.1786 47.1082 22.719V18.1746C47.1027 13.356 45.1854 8.73644 41.7769 5.32922C38.3684 1.92201 33.747 0.00544282 28.9266 0H22.3151C17.4948 0.00544282 12.8734 1.92201 9.46486 5.32922C6.05633 8.73644 4.13903 13.356 4.13359 18.1746V22.7189C3.61388 23.1785 3.19778 23.7432 2.91283 24.3756C2.62788 25.0081 2.4806 25.6938 2.48072 26.3874V33.093C2.48218 34.3943 2.99997 35.6419 3.92049 36.5621C4.841 37.4823 6.08908 37.9999 7.3909 38.0014H11.0537C11.8389 42.199 14.0687 45.9896 17.3565 48.7162V54.9066L4.42211 58.3544C2.87387 58.7669 1.38696 59.3821 0 60.184L1.6557 63.0442C2.79052 62.388 4.00715 61.8847 5.27397 61.5473L19.2261 57.8282H32.0157L45.9678 61.5473C48.8045 62.2985 51.3547 63.8736 53.296 66.0734C55.2373 68.2732 56.4825 70.999 56.8743 73.9062L58.776 87.8466L45.4553 90.5097V76.0028H42.1496V99.134H45.4553V93.8796L59.2235 91.1271L60.3463 99.3573L63.6217 98.9108L63.4018 97.2987L66.9426 91.5471V99.134H70.2484V79.3072H73.5541V99.134H76.8598V91.5472L82.0636 100L84.879 98.2681L76.8598 85.242V79.3072H77.589L90.3279 100L93.1434 98.2681L80.1656 77.1873V72.6983H88.4299C89.7446 72.6968 91.0049 72.1741 91.9345 71.2449C92.8641 70.3156 93.387 69.0557 93.3885 67.7416V66.0894H98.3471C98.7855 66.0894 99.2059 65.9153 99.5159 65.6054C99.8259 65.2956 100 64.8753 100 64.4371V18.1746C100 17.7364 99.8259 17.3161 99.5159 17.0063C99.2059 16.6964 98.7855 16.5223 98.3471 16.5223ZM45.4553 26.3874V33.093C45.4548 33.5182 45.2856 33.9259 44.9848 34.2266C44.6839 34.5273 44.2761 34.6964 43.8507 34.6969H40.4967V24.7835H43.8507C44.2761 24.784 44.6839 24.9531 44.9848 25.2538C45.2856 25.5545 45.4548 25.9622 45.4553 26.3874ZM10.7451 34.6969H7.3909C6.96551 34.6964 6.55768 34.5273 6.25689 34.2266C5.9561 33.9259 5.78692 33.5182 5.78646 33.093V26.3874C5.78692 25.9622 5.9561 25.5545 6.25689 25.2538C6.55768 24.9531 6.96551 24.784 7.3909 24.7835H10.7451V34.6969ZM10.7451 20.2169V21.479H7.43932V18.1746C7.44377 14.2321 9.01246 10.4525 11.8013 7.66473C14.5901 4.877 18.3712 3.30891 22.3151 3.30447H28.9266C32.8706 3.30891 36.6517 4.877 39.4405 7.66473C42.2293 10.4525 43.798 14.2321 43.8024 18.1746V21.479H40.4967V20.2169C40.4926 16.6091 39.0571 13.1502 36.505 10.5991C33.9529 8.04802 30.4927 6.61302 26.8835 6.60894H24.3582C20.7491 6.61302 17.2889 8.04802 14.7368 10.5991C12.1847 13.1502 10.7491 16.6091 10.7451 20.2169ZM30.5795 54.5237H20.6623V49.567H30.5795V54.5237ZM31.6632 46.2626H19.5786C17.8568 44.8652 16.4675 43.1025 15.5114 41.1022C14.5553 39.1018 14.0564 36.9139 14.0508 34.6969V20.2169C14.0539 17.4852 15.1408 14.8662 17.0732 12.9346C19.0055 11.003 21.6255 9.91649 24.3582 9.9134H26.8835C29.6163 9.91649 32.2362 11.003 34.1686 12.9346C36.1009 14.8662 37.1879 17.4852 37.191 20.2169V34.6969C37.1853 36.9139 36.6864 39.1018 35.7303 41.1022C34.7743 43.1025 33.385 44.8652 31.6632 46.2626ZM55.3725 28.088V8.26117H88.4299V28.088H55.3725ZM73.5541 31.3924V34.6969H70.2484V31.3924H73.5541ZM60.1497 73.4597C60.1148 73.204 60.0735 72.9505 60.0282 72.6983H63.6369V77.1873L61.1986 81.148L60.1497 73.4597ZM66.9426 85.2419L62.6977 92.1372L61.9027 86.3095L66.2134 79.3072H66.9426V85.2419ZM76.8598 76.0028H66.9426V72.6983H76.8598V76.0028ZM90.0828 67.7416C90.0823 68.1796 89.908 68.5996 89.5981 68.9093C89.2883 69.2191 88.8681 69.3933 88.4299 69.3938H59.1081C57.9895 66.4729 56.133 63.8915 53.7197 61.901V47.9148C53.7202 47.4767 53.8945 47.0568 54.2043 46.747C54.5142 46.4373 54.9343 46.2631 55.3725 46.2626H63.6369C64.019 46.2626 64.3893 46.1302 64.6848 45.8881C64.9803 45.6459 65.1827 45.3089 65.2577 44.9343L66.3791 39.3295C66.4548 38.9554 66.6575 38.6188 66.9528 38.3768C67.2481 38.1348 67.618 38.0022 67.9999 38.0014H75.8026C76.1845 38.0022 76.5544 38.1348 76.8497 38.3769C77.145 38.6189 77.3477 38.9554 77.4234 39.3296L78.5448 44.9343C78.6196 45.3082 78.8215 45.6447 79.1161 45.8867C79.4108 46.1288 79.7801 46.2616 80.1615 46.2626L88.4337 46.2824C88.8712 46.2842 89.2902 46.4589 89.5992 46.7685C89.9082 47.0781 90.0821 47.4973 90.0828 47.9347V67.7416ZM96.6943 62.7849H93.3885V47.9347C93.3867 46.9102 93.0681 45.9114 92.4763 45.0751C91.8845 44.2387 91.0485 43.6057 90.0828 43.2628V41.3059H86.777V42.9739L81.5212 42.9613L80.6649 38.6817C80.4734 37.7382 80.0119 36.8706 79.3364 36.1843C78.6609 35.4981 77.8005 35.0228 76.8598 34.8161V31.3924H90.0828C90.5211 31.3924 90.9416 31.2184 91.2515 30.9085C91.5615 30.5987 91.7356 30.1784 91.7357 29.7402V19.8268H96.6943V62.7849Z" fill="#616161"/>
<path d="M79.6813 10.3972L77.3438 12.7339L83.9552 19.3428L86.2928 17.0062L79.6813 10.3972Z" fill="#616161"/>
<path d="M71.4172 10.3972L69.0796 12.7339L82.3025 25.9518L84.6401 23.6151L71.4172 10.3972Z" fill="#616161"/>
<path d="M75.2067 41.3059H68.5952V44.6104H75.2067V41.3059Z" fill="#616161"/>
<path d="M78.5127 49.567H58.6783C58.2399 49.567 57.8195 49.7411 57.5095 50.0509C57.1995 50.3608 57.0254 50.7811 57.0254 51.2193V64.4371C57.0254 64.8753 57.1995 65.2956 57.5095 65.6054C57.8195 65.9153 58.2399 66.0894 58.6783 66.0894H78.5127C78.9511 66.0894 79.3715 65.9153 79.6814 65.6054C79.9914 65.2956 80.1656 64.8753 80.1656 64.4371V51.2193C80.1656 50.7811 79.9914 50.3608 79.6814 50.0509C79.3715 49.7411 78.9511 49.567 78.5127 49.567ZM76.8598 62.7849H60.3311V52.8715H76.8598V62.7849Z" fill="#616161"/>
<path d="M86.7774 49.567H83.4717V52.8715H86.7774V49.567Z" fill="#616161"/>
<path d="M86.7774 56.176H83.4717V59.4805H86.7774V56.176Z" fill="#616161"/>
<path d="M86.7774 62.7849H83.4717V66.0894H86.7774V62.7849Z" fill="#616161"/>
<path d="M5.78668 90.5096L1.15224 89.5831L0.503906 92.8236L5.78668 93.8798V99.1341H9.09242V76.0028H5.78668V90.5096Z" fill="#616161"/>
</svg>
