<svg width="34" height="34" viewBox="0 0 34 34" fill="none" xmlns="http://www.w3.org/2000/svg">
<path d="M17 0C7.6075 0 0 7.8051 0 17.4314C0 25.1345 4.8705 31.6668 11.6237 33.9699C12.4737 34.134 12.7854 33.5945 12.7854 33.1318C12.7854 32.7179 12.7712 31.621 12.7642 30.1679C8.03533 31.2189 7.038 27.8293 7.038 27.8293C6.2645 25.8174 5.14675 25.2794 5.14675 25.2794C3.60683 24.1988 5.26575 24.2209 5.26575 24.2209C6.97283 24.3422 7.86958 26.017 7.86958 26.017C9.38542 28.6823 11.849 27.9121 12.8208 27.4672C12.9738 26.3393 13.4116 25.5721 13.8975 25.136C10.1221 24.6999 6.154 23.201 6.154 16.5223C6.154 14.6198 6.81275 13.0647 7.90358 11.8451C7.71233 11.4046 7.13858 9.6322 8.05233 7.23154C8.05233 7.23154 9.47608 6.76442 12.7273 9.01873C14.0873 8.63144 15.5323 8.43927 16.9773 8.4304C18.4223 8.43927 19.8673 8.63144 21.2273 9.01873C24.4573 6.76442 25.8811 7.23154 25.8811 7.23154C26.7948 9.6322 26.2211 11.4046 26.0511 11.8451C27.1348 13.0647 27.7936 14.6198 27.7936 16.5223C27.7936 23.2187 23.8198 24.6925 20.0373 25.1212C20.6323 25.6445 21.1848 26.7133 21.1848 28.3467C21.1848 30.6794 21.1636 32.5538 21.1636 33.1199C21.1636 33.5767 21.4611 34.1222 22.3323 33.9478C29.1337 31.6594 34 25.1227 34 17.4314C34 7.8051 26.3882 0 17 0Z" fill="#808080"/>
</svg>
