<svg width="100" height="100" viewBox="0 0 100 100" fill="none" xmlns="http://www.w3.org/2000/svg">
<g clip-path="url(#clip0_200_36)">
<path d="M99.9702 47.2276L98.0796 36.5057C97.9263 35.636 97.2081 34.9774 96.3284 34.8993L87.407 34.1089C86.2004 31.3612 84.6904 28.7511 82.9041 26.3249L86.6845 18.1955C87.057 17.3945 86.8457 16.4433 86.1689 15.8757L77.8285 8.87734C77.152 8.30976 76.1787 8.2666 75.4545 8.77226L68.111 13.9025C65.4139 12.5656 62.5797 11.5338 59.6573 10.8248L57.3298 2.1756C57.1003 1.32287 56.327 0.730103 55.4438 0.730103H44.5564C43.6732 0.730103 42.8999 1.32287 42.6704 2.1756L40.3427 10.825C37.4216 11.5336 34.5873 12.5654 31.8892 13.9025L24.5455 8.77226C23.8213 8.2664 22.8481 8.30957 22.1715 8.87734L13.8311 15.8757C13.1545 16.4433 12.943 17.3945 13.3155 18.1955L17.095 26.3232C15.3092 28.748 13.7993 31.3585 12.5915 34.1089L3.67157 34.8991C2.79189 34.9768 2.07373 35.6356 1.92041 36.5055L0.0297911 47.2274C-0.123529 48.0971 0.325884 48.9616 1.12588 49.3358L9.24851 53.1342C9.43991 56.1393 9.96139 59.108 10.8038 61.9888L4.47548 68.3308C3.85165 68.956 3.72489 69.922 4.16649 70.6871L9.61003 80.1161C10.0518 80.8812 10.9518 81.254 11.8051 81.0267L20.4692 78.7148C22.5463 80.8897 24.8541 82.8282 27.3521 84.496L26.5807 93.4245C26.5047 94.3045 27.0285 95.126 27.8584 95.428L38.0894 99.1518C38.9193 99.4539 39.8488 99.1614 40.3562 98.4387L45.5044 91.103C48.4786 91.4288 51.4927 91.4307 54.4944 91.101L59.644 98.4385C60.0176 98.9711 60.62 99.27 61.2432 99.27C61.4663 99.27 61.6921 99.2317 61.9108 99.1518L72.1418 95.428C72.9717 95.126 73.4957 94.3045 73.4195 93.4247L72.6481 84.4946C75.1457 82.8274 77.4533 80.8897 79.531 78.715L88.1951 81.0263C89.0482 81.2538 89.9484 80.8806 90.39 80.1157L95.8337 70.6871C96.2753 69.9222 96.1488 68.9562 95.5247 68.3308L89.1994 61.992C90.0417 59.1121 90.563 56.1416 90.7542 53.1328L98.8737 49.336C99.6741 48.9618 100.124 48.0973 99.9702 47.2276ZM88.0341 50.0928C87.3691 50.4039 86.9345 51.0615 86.9095 51.7953C86.7914 55.2545 86.1923 58.6662 85.1295 61.9361C84.9025 62.6338 85.0861 63.4 85.6045 63.9193L91.7025 70.0304L87.7556 76.8663L79.4025 74.638C78.6939 74.449 77.9391 74.673 77.4481 75.2179C75.1371 77.7827 72.4848 80.0097 69.5651 81.8372C68.9436 82.2261 68.5922 82.9306 68.6553 83.6608L69.3991 92.2696L61.9815 94.9694L57.0175 87.896C56.5966 87.296 55.8759 86.9827 55.1491 87.0835C53.4401 87.3218 51.7077 87.4425 50.0001 87.4425C48.281 87.4425 46.5482 87.3225 44.8497 87.0858C44.1236 86.985 43.4025 87.2985 42.9814 87.8981L38.0187 94.9694L30.6012 92.2696L31.3449 83.6626C31.408 82.9321 31.0568 82.2278 30.4353 81.8388C27.5146 80.0107 24.8627 77.7829 22.5529 75.2181C22.0621 74.6728 21.3069 74.4488 20.5981 74.6378L12.2446 76.8667L8.29792 70.0306L14.3991 63.9164C14.9172 63.397 15.1008 62.631 14.8741 61.9332C13.8108 58.6611 13.2118 55.2508 13.0934 51.7969C13.0682 51.0633 12.6338 50.4057 11.9688 50.0946L4.13681 46.4317L5.5075 38.6583L14.1069 37.8966C14.8375 37.8319 15.4704 37.3632 15.7454 36.6829C17.0358 33.4903 18.7701 30.4919 20.9002 27.7708C21.353 27.1925 21.443 26.4093 21.1334 25.7433L17.4889 17.9058L23.5359 12.8318L30.6172 17.7787C31.2191 18.199 32.0062 18.2464 32.6543 17.9011C35.7019 16.2767 38.9562 15.092 42.3269 14.3799C43.0456 14.2281 43.6183 13.6857 43.8091 12.9763L46.0536 4.63614H53.9472L56.1913 12.9765C56.3821 13.6859 56.9548 14.2281 57.6735 14.38C61.0458 15.0924 64.3001 16.2773 67.3457 17.9011C67.994 18.247 68.7813 18.1992 69.3832 17.7789L76.4645 12.832L82.5113 17.906L78.866 25.745C78.5564 26.4109 78.6463 27.1941 79.0988 27.7724C81.2303 30.496 82.9646 33.4938 84.2533 36.6827C84.5283 37.3628 85.1609 37.8317 85.8918 37.8964L94.4927 38.6583L95.8634 46.4319L88.0341 50.0928Z" fill="#616161"/>
<path d="M73.409 26.5911C67.1563 20.3384 58.8429 16.8949 50.0003 16.8949C41.1578 16.8949 32.8443 20.3384 26.5918 26.5911C13.6842 39.4987 13.6842 60.5008 26.5918 73.4083C32.8445 79.6611 41.1578 83.1046 50.0003 83.1046C58.8429 83.1046 67.1563 79.6611 73.4088 73.4083C79.6615 67.1556 83.1053 58.8424 83.1053 49.9996C83.1053 41.1571 79.6615 32.8437 73.409 26.5911ZM70.6467 70.6461C65.1319 76.1609 57.7995 79.198 50.0003 79.198C42.2011 79.198 34.8687 76.1609 29.3539 70.6461C17.9694 59.2615 17.9694 40.7378 29.3539 29.3532C34.8687 23.8384 42.2011 20.8013 50.0003 20.8013C57.7995 20.8013 65.1319 23.8384 70.6467 29.3532C76.1617 34.8681 79.1988 42.2005 79.1988 49.9996C79.1988 57.7988 76.1617 65.1312 70.6467 70.6461Z" fill="#616161"/>
<path d="M50.4386 23.7342C47.0871 23.676 43.8029 24.2532 40.6717 25.4428C39.6633 25.826 39.1564 26.9539 39.5394 27.9623C39.8357 28.7424 40.5779 29.2223 41.3656 29.2223C41.5961 29.2223 41.8306 29.1811 42.0588 29.0946C44.7244 28.0817 47.5208 27.5926 50.3734 27.6401C51.456 27.667 52.3409 26.7981 52.3589 25.7198C52.3769 24.6413 51.5171 23.7524 50.4386 23.7342Z" fill="#616161"/>
<path d="M56.7787 24.6202L56.7152 24.6032C55.6748 24.3216 54.6015 24.9364 54.3193 25.9776C54.0375 27.0188 54.6529 28.0917 55.6939 28.3739L55.8086 28.4042C55.9713 28.446 56.1344 28.4659 56.2951 28.4659C57.1656 28.4659 57.9593 27.8794 58.1855 26.9972C58.4535 25.9522 57.8236 24.8882 56.7787 24.6202Z" fill="#616161"/>
<path d="M66.4387 34.4415C65.3401 33.3438 63.8163 32.7141 62.2575 32.7141C60.6589 32.7141 59.1893 33.3444 58.1192 34.4887L55.6569 37.1219L52.6771 40.2108L35.8099 35.0719C35.1195 34.8622 34.3699 35.0491 33.8596 35.5594L30.26 39.1594C29.8354 39.584 29.6297 40.1805 29.7023 40.7764C29.775 41.3727 30.118 41.9022 30.632 42.2123L43.38 49.9056L40.2545 53.2295L35.7933 52.9086C35.2293 52.8693 34.673 53.0752 34.2723 53.4756L31.2424 56.5052C30.7959 56.9515 30.5928 57.5861 30.6971 58.2089C30.8014 58.8316 31.2 59.3654 31.7674 59.6419L38.1336 62.746L41.2377 69.1124C41.5144 69.6798 42.0482 70.0784 42.6709 70.1827C43.2933 70.2862 43.9281 70.0837 44.3744 69.6374L47.404 66.6077C47.8048 66.2069 48.0117 65.6517 47.971 65.0864L47.6501 60.6251L50.9739 57.4996L58.6673 70.2478C58.9776 70.762 59.5071 71.1048 60.1034 71.1774C60.1823 71.187 60.2612 71.1917 60.3397 71.1917C60.8544 71.1917 61.3522 70.9882 61.7206 70.6196L65.3206 67.02C65.8299 66.5107 66.0176 65.7624 65.8088 65.0732L60.7011 48.1969L63.228 45.7305L66.3946 42.7574C67.5112 41.7088 68.1397 40.2717 68.1643 38.7115C68.1891 37.1196 67.5604 35.5631 66.4387 34.4415ZM63.7202 39.91L60.5401 42.8957C60.5309 42.9043 60.5218 42.9131 60.5128 42.9219L57.1237 46.2301C56.6022 46.7391 56.4075 47.4961 56.6186 48.1935L61.7311 65.0853L60.7227 66.0935L53.0692 53.4117C52.7644 52.9066 52.2476 52.5662 51.663 52.4859C51.5743 52.4736 51.4855 52.4677 51.397 52.4677C50.9032 52.4677 50.4238 52.6552 50.0591 52.998L44.2974 58.416C43.8693 58.8187 43.6451 59.3927 43.6873 59.979L44.0107 64.4767L43.5486 64.9388L41.3498 60.4294C41.1586 60.0376 40.842 59.7208 40.4502 59.53L35.9408 57.3312L36.4029 56.8691L40.9004 57.1927C41.4873 57.2347 42.0607 57.0105 42.4634 56.5826L47.8814 50.8209C48.2855 50.391 48.4738 49.8013 48.3935 49.217C48.3132 48.6324 47.973 48.1154 47.4677 47.8107L34.7859 40.1574L35.7926 39.1508L52.6827 44.2967C53.3851 44.5106 54.148 44.3127 54.6575 43.7844L58.4784 39.8237C58.4854 39.8162 58.4925 39.809 58.4993 39.8016L60.9719 37.1573C61.4083 36.6905 61.9645 36.6209 62.2571 36.6209C62.7878 36.6209 63.3048 36.8336 63.6755 37.2043C64.054 37.5826 64.2659 38.11 64.2575 38.6508C64.2501 39.1442 64.059 39.5916 63.7202 39.91Z" fill="#616161"/>
</g>
<defs>
<clipPath id="clip0_200_36">
<rect width="100" height="100" fill="white"/>
</clipPath>
</defs>
</svg>
