<svg width="46" height="101" viewBox="0 0 46 101" fill="none" xmlns="http://www.w3.org/2000/svg">
<g clip-path="url(#clip0_196_548)">
<path d="M44.0085 40.4864C38.746 17.3326 26.3335 9.7243 25.0002 6.81342C23.9085 5.11436 22.8835 3.15295 22.0377 1.09993L21.946 0.850067C21.946 0.92919 21.946 0.979162 21.9252 1.05412V1.10826V1.27067V1.33313V1.44141V1.54968V1.59965C21.9252 1.59965 21.9252 1.63713 21.9252 1.65379V1.64962V1.73707C21.9252 1.74957 21.9294 1.76622 21.9294 1.78288C21.9294 1.79954 21.9294 1.81203 21.9252 1.82869V1.91198V2.04524L21.8877 2.25345V2.2951V2.32008C21.8877 2.32008 21.8877 2.33674 21.8877 2.34507V2.51581H21.8669V2.58244H21.7169V2.81981H21.6919V3.01137H21.5919V3.16961V3.1821C21.5919 3.1821 21.5919 3.19043 21.5919 3.1946V3.23624V3.25706C21.5919 3.25706 21.5919 3.26956 21.5919 3.27788L21.496 3.34868L21.4752 3.37783V3.46945H21.4544V3.5444H21.4294V3.7318H21.4044V3.81092H21.3835V3.88588H21.3627V3.9775H21.1752V4.03996H21.1544V4.11908H21.1335V4.18155H21.1085V4.27733H21.0877V4.30232V4.31481C21.0877 4.31481 21.0877 4.32314 21.0877 4.33147C21.0085 4.36895 20.9419 4.41892 20.8835 4.47305C20.871 4.48555 20.8585 4.49804 20.846 4.5147C20.8335 4.53136 20.846 4.5147 20.846 4.5147V4.75623H20.8252V4.72292H20.8044V4.76456H20.7835V4.79787H20.7627V4.88949H20.5085V4.93113H20.4669V5.01442H20.3419V5.05606H20.321V5.08105H20.2794V5.12269H20.1544V5.14768H20.1335V5.38921H20.1085V5.43086H20.0877V5.45584H20.0669V5.48083C20.0502 5.50581 20.0294 5.52664 20.0085 5.54746L19.9585 5.5891C19.9002 5.63074 19.846 5.67655 19.796 5.72236C19.7627 5.74735 19.7335 5.76817 19.7044 5.79315L19.5002 5.95556L19.1919 6.21375C18.9544 6.40948 18.7044 6.63019 18.4169 6.87589C17.7127 7.49221 16.8752 8.28344 15.9169 9.24124L15.8544 9.3037C6.54603 19.1899 0.700195 32.4284 0.316862 47.0286V47.1035C0.283529 47.749 0.262695 48.5028 0.262695 49.2607C0.262695 50.1768 0.291862 51.0888 0.346029 51.9925L0.341862 51.8676V51.905C0.808529 59.2551 2.95853 66.018 6.40853 71.9272L6.29186 71.7107C7.5752 73.9594 8.85019 75.8709 10.2419 77.6865L10.1502 77.5616C13.1794 81.5719 16.6294 85.0366 20.496 87.985L20.6252 88.0808C21.6877 91.2707 22.3044 94.9395 22.3044 98.754C22.3044 99.0705 22.3002 99.387 22.2919 99.6993V99.6535L24.9752 100.549C24.8627 99.287 24.796 97.8212 24.796 96.3428C24.796 94.1232 24.9419 91.937 25.221 89.7965L25.196 90.0505C25.4669 88.9803 25.971 88.0516 26.6544 87.2854L26.6502 87.2937C27.8919 86.4067 28.9794 85.528 30.0085 84.5827L29.9835 84.6077C30.0585 84.5286 30.1002 84.4578 30.1669 84.3828C39.446 75.6793 45.2252 63.3487 45.2252 49.6646C45.2252 46.329 44.8835 43.0766 44.2294 39.9325L44.2835 40.2407L44.0085 40.4864Z" fill="#CDCDCD"/>
</g>
<defs>
<clipPath id="clip0_196_548">
<rect width="45.8333" height="99.9445" fill="white" transform="translate(0 0.850067)"/>
</clipPath>
</defs>
</svg>
