<svg width="48" height="48" viewBox="0 0 48 48" fill="none" xmlns="http://www.w3.org/2000/svg">
<path d="M34.3598 19.036C31.8338 7.916 25.8758 4.262 25.2358 2.864C24.5318 1.878 23.7698 0 23.7698 0L23.7598 0.098V0.124H23.7578C23.7542 0.149901 23.7516 0.175916 23.7498 0.202V0.232H23.7458L23.7418 0.284V0.336H23.7358C23.7338 0.352 23.7338 0.372 23.7298 0.386V0.428H23.7258C23.7258 0.442 23.7258 0.458 23.7218 0.47V0.51H23.7178L23.7138 0.574V0.578L23.6958 0.678V0.694H23.6918L23.6858 0.718V0.752H23.6798V0.796H23.6698V0.832H23.6598V0.874H23.6518V0.912H23.6438V0.946H23.6318V0.974H23.6238V1.01H23.6158V1.038H23.6058V1.064H23.5998V1.094H23.5918L23.5898 1.102V1.122H23.5838L23.5818 1.134V1.146H23.5778C23.5757 1.15249 23.5743 1.1592 23.5738 1.166L23.5538 1.208V1.212C23.5498 1.21616 23.5464 1.22088 23.5438 1.226V1.242H23.5358V1.258H23.5258V1.274H23.5198V1.294H23.5078V1.322H23.4998V1.33H23.4918V1.346H23.4838V1.368H23.4758V1.384H23.4638V1.406H23.4558V1.422H23.4458V1.438H23.4398V1.458H23.4298V1.474H23.4218V1.486H23.4138V1.502H23.4018V1.52H23.3938V1.532H23.3838V1.548H23.3758V1.57H23.3658V1.578H23.3598V1.594H23.3478V1.602H23.3398V1.622H23.3318V1.63H23.3238V1.646H23.3138V1.658H23.3078L23.3038 1.666V1.674H23.2998L23.2958 1.682V1.684H23.2938C23.2924 1.68927 23.2896 1.69409 23.2858 1.698V1.704H23.2838L23.2598 1.74V1.742C23.2558 1.746 23.2458 1.754 23.2418 1.762V1.766H23.2398L23.2338 1.772V1.778H23.2298L23.2238 1.784V1.786H23.2218L23.2158 1.794V1.802H23.2098L23.2058 1.806V1.81H23.2018C23.2018 1.814 23.1978 1.814 23.1978 1.816V1.822H23.1898L23.1858 1.828V1.84H23.1798V1.848H23.1718V1.86H23.1638V1.876H23.1538V1.86H23.1438V1.868H23.1358V1.88H23.1258V1.896H23.1158V1.904H23.1078V1.916H23.0998V1.924H23.0918V1.94H23.0798V1.948H23.0718V1.96H23.0618V1.968H23.0538V1.978H23.0438V1.998H23.0398V2.006H23.0278V2.016H23.0198V2.02H23.0118V2.028H23.0018V2.048H22.9938V2.056H22.9838V2.064H22.9758V2.076H22.9658V2.084H22.9558V2.092H22.9478V2.1H22.9398V2.12H22.9318V2.13H22.9198V2.138H22.9118V2.146H22.9018V2.158H22.8938V2.166H22.8838V2.18H22.8758V2.188H22.8638V2.2H22.8598V2.208H22.8518V2.216H22.8418V2.224H22.8338V2.236H22.8238V2.244H22.8178L22.8158 2.248V2.252H22.8118L22.8038 2.26L22.7958 2.266V2.278H22.7878V2.288H22.7798V2.296H22.7718V2.304H22.7658L22.7598 2.31V2.316H22.7558L22.7518 2.32V2.326H22.7478C22.7378 2.338 22.7338 2.346 22.7198 2.358C22.6833 2.38287 22.6492 2.41098 22.6178 2.442L22.5738 2.476V2.478H22.5718C22.5394 2.50436 22.5067 2.53036 22.4738 2.556V2.558L22.3258 2.682V2.68H22.3218C22.2078 2.774 22.0878 2.88 21.9498 2.998V3H21.9478C21.6098 3.296 21.2078 3.676 20.7578 4.136L20.7278 4.166L20.7198 4.174C17.9998 6.988 13.7138 12.852 13.2618 22.328C13.2218 23.112 13.2298 23.874 13.2738 24.616V24.634C13.4918 28.368 14.6638 31.556 16.1298 34.146V34.148C16.7138 35.18 17.3438 36.118 17.9818 36.958V36.96C20.1858 39.87 22.4358 41.594 23.0098 42.012C23.8918 44.058 23.8098 47.57 23.8098 47.57L25.0978 48C25.0978 48 24.8358 44.598 25.2038 42.956C25.3178 42.442 25.5878 42.004 25.9018 41.632C26.4589 41.2349 26.9913 40.8041 27.4958 40.342C27.5318 40.304 27.5518 40.27 27.5838 40.234C30.6258 37.398 36.3078 30.414 34.3598 19.036Z" fill="#808080"/>
</svg>
