<svg width="48" height="48" viewBox="0 0 48 48" fill="none" xmlns="http://www.w3.org/2000/svg">
<path fill-rule="evenodd" clip-rule="evenodd" d="M27.7318 3C27.4435 3.00328 27.1577 3.05395 26.8858 3.15C29.3023 4.737 26.4658 7.041 27.7858 9C27.6935 8.34425 27.7975 7.67583 28.0848 7.07916C28.372 6.48248 28.8297 5.9843 29.3998 5.6475C29.8273 5.292 30.1003 5.1645 30.0088 4.5765C29.8648 3.6135 28.5808 3 27.7318 3ZM31.1818 3.621C30.8488 5.3055 30.4318 5.367 29.1973 6.4515C28.7154 6.83073 28.3751 7.3612 28.2314 7.95741C28.0878 8.55363 28.149 9.18085 28.4053 9.738C23.3053 7.758 16.7683 6.561 11.9758 9.987C10.2523 11.2185 9.19934 12.987 7.07384 13.7085C5.69984 14.178 4.34984 14.04 3.49184 15.402C3.17695 15.7953 3.01245 16.2879 3.02785 16.7915C3.04324 17.295 3.23751 17.7767 3.57584 18.15C3.83084 18.4125 4.32584 18.5805 4.52984 18.8475C4.64834 18.9975 4.64534 19.1475 4.75784 19.347C4.95618 19.8122 5.24358 20.2341 5.60384 20.589C5.82284 20.7705 6.58184 20.9475 6.71084 21.141C6.87134 21.3825 6.45134 22.341 6.80384 22.491C7.04234 22.6005 7.73684 21.375 7.80434 21.267C7.66634 22.2315 7.48484 23.943 8.56934 22.518C9.08384 21.8415 9.11534 21.618 9.98084 21.468C11.689 21.1754 13.4393 21.2401 15.1212 21.658C16.8031 22.0758 18.3801 22.8377 19.7528 23.8957C21.1255 24.9536 22.2639 26.2846 23.0964 27.8046C23.9288 29.3246 24.4372 31.0007 24.5893 32.727C24.4273 31.977 23.4478 30.777 22.5358 31.062C22.1473 31.182 22.0033 31.8525 21.7483 32.241C21.4264 32.7339 21.0291 33.1733 20.5708 33.543C20.6491 32.8158 20.6126 32.0809 20.4628 31.365C20.1898 32.487 19.6423 34.3485 18.2638 34.047C17.8046 33.9769 17.3744 33.7791 17.0221 33.4762C16.6699 33.1733 16.4099 32.7775 16.2718 32.334C16.0933 31.194 17.2978 29.8575 15.3613 29.763C11.4763 29.5725 12.3748 35.286 14.6683 36.7755C14.1412 36.8338 13.6271 36.9772 13.1458 37.2C14.6016 38.0459 16.2419 38.5236 17.9242 38.5914C19.6065 38.6592 21.28 38.3152 22.7991 37.5892C24.3182 36.8632 25.6371 35.7772 26.641 34.4256C27.645 33.0739 28.3037 31.4976 28.5598 29.8335C29.0941 32.2678 28.7509 34.8127 27.5908 37.0185C27.1053 37.9406 26.4833 38.7841 25.7458 39.5205C25.2958 39.9705 24.4048 40.4655 24.1123 40.932C25.9328 40.6913 27.7118 40.2028 29.3998 39.48C27.6526 41.8609 25.3302 43.7601 22.6498 45C25.528 44.7963 28.3102 43.8794 30.7455 42.332C33.1808 40.7847 35.1927 38.6555 36.5998 36.1365C36.1514 38.6559 35.1555 41.0461 33.6823 43.1385C35.6637 41.812 37.3495 40.0902 38.6337 38.0811C39.9179 36.0721 40.7728 33.8192 41.1448 31.464C41.5135 33.1882 41.6192 34.9582 41.4583 36.714C43.0865 34.4526 44.1866 31.8548 44.6775 29.1118C45.1684 26.3689 45.0376 23.5507 44.2948 20.865C43.7264 18.7774 42.8739 16.7777 41.7613 14.922C41.3307 14.1989 40.8595 13.5008 40.3498 12.831C40.1503 12.5715 39.0838 11.622 39.0838 11.331C39.0748 11.36 39.0673 11.36 39.0613 11.331C39.0613 16.23 33.8113 19.2975 29.4148 18.0255C31.1168 17.8919 32.7222 17.1817 33.9658 16.0122C35.2095 14.8428 36.017 13.284 36.2548 11.5935C36.4555 9.88404 36.0606 8.15766 35.1368 6.7054C34.213 5.25313 32.8167 4.16379 31.1833 3.621H31.1818Z" fill="#808080"/>
</svg>
