<svg width="100" height="101" viewBox="0 0 100 101" fill="none" xmlns="http://www.w3.org/2000/svg">
<g clip-path="url(#clip0_196_554)">
<path d="M59.0101 15.2801C57.1927 12.4212 57.7739 10.5358 58.777 8.58941C59.6748 6.84708 60.0415 3.81917 56.8691 1.43617C59.79 0.361713 64.3991 2.26146 64.4785 5.74146C62.7836 8.0723 58.1538 8.99849 59.0101 15.2801V15.2801ZM79.981 79.5244C78.5629 84.1185 79.2096 86.5628 73.0423 96.1011C83.9464 88.7441 89.0911 79.2454 90.7889 68.4648C91.8551 72.9601 91.9557 77.0378 91.537 80.8908C100.573 69.0014 106.764 45.0263 85.9396 20.9262C85.1019 31.5789 74.7935 39.9668 62.905 36.6778C83.2889 34.4319 84.5954 8.52652 67.0837 2.54471C67.4257 9.75173 57.5872 7.39175 60.4805 17.0332C50.4594 11.3667 28.5648 10.202 19.8607 18.7991C15.3736 23.231 12.3106 26.8964 6.70273 27.1385C2.07233 27.3384 -4.042 34.8479 3.91335 38.6884C4.67318 41.8887 7.3434 43.711 8.89172 44.025C8.50664 49.724 9.71962 46.8183 11.497 44.3343C10.8998 51.5383 11.884 48.9431 14.6697 45.2366C38.2379 40.4728 51.2539 59.6823 51.4011 71.4808C51.2975 69.3402 47.8735 66.8507 46.0616 67.5365C44.8374 70.1287 43.5034 72.3289 41.8571 73.4144C42.0292 71.6957 41.9117 69.977 41.5992 68.2583C41.0565 70.3367 40.0344 72.4949 38.4006 74.7549C35.1512 74.9362 30.6033 72.5205 31.9262 68.5161C33.7923 64.6218 30.132 63.8121 27.1831 64.927C24.9672 65.7648 23.4699 68.085 23.265 68.8064C22.5259 71.4087 22.7691 77.2185 27.8249 81.0711C26.4995 81.3151 25.1387 81.5325 24.2137 82.0765C32.8138 87.2749 41.592 85.5185 46.4804 83.5569C54.4839 80.3451 60.0041 71.4553 60.8676 64.5976C63.0891 74.2434 59.1092 84.9636 50.1883 90.7131C52.7371 90.9828 57.726 89.257 62.8277 87.439C58.9711 92.2898 54.361 96.8897 46.8093 100.509C61.6838 99.2642 72.5639 91.7999 79.981 79.5244Z" fill="#CDCDCD"/>
</g>
<defs>
<clipPath id="clip0_196_554">
<rect width="100" height="99.9445" fill="white" transform="translate(0 0.850067)"/>
</clipPath>
</defs>
</svg>
