<svg width="100" height="101" viewBox="0 0 100 101" fill="none" xmlns="http://www.w3.org/2000/svg">
<g clip-path="url(#clip0_196_556)">
<path d="M46.7253 0.876963C46.5103 0.896499 45.826 0.964877 45.2102 1.01372C31.0068 2.29337 17.7028 9.95172 9.27664 21.7225C4.58456 28.2673 1.58358 35.6912 0.449658 43.5547C0.0488759 46.2996 0 47.1104 0 50.8321C0 54.5538 0.0488759 55.3646 0.449658 58.1095C3.16716 76.8744 16.5298 92.6404 34.653 98.4819C37.8983 99.5271 41.3196 100.24 45.2102 100.67C46.7253 100.836 53.2747 100.836 54.7898 100.67C61.5054 99.9276 67.1945 98.267 72.8055 95.4049C73.6657 94.9653 73.8319 94.8481 73.7146 94.7504C73.6364 94.6918 69.9707 89.7783 65.5719 83.8392L57.5758 73.0452L47.5562 58.2267C42.043 50.0799 37.5073 43.4179 37.4682 43.4179C37.4291 43.4082 37.39 49.992 37.3705 58.0313C37.3412 72.1075 37.3314 72.674 37.1554 73.0061C36.9013 73.4848 36.7058 73.6802 36.2952 73.8951C35.9824 74.0513 35.7087 74.0807 34.2327 74.0807H32.5415L32.0919 73.7974C31.7986 73.6118 31.5836 73.3676 31.437 73.0843L31.2317 72.6447L31.2512 53.0593L31.2805 33.464L31.5836 33.0831C31.74 32.8779 32.0723 32.6142 32.3069 32.4872C32.7077 32.2918 32.8641 32.2723 34.5552 32.2723C36.5494 32.2723 36.8817 32.3504 37.3998 32.917C37.5464 33.0733 42.9717 41.2396 49.4624 51.0763C55.9531 60.913 64.8289 74.3444 69.1887 80.938L77.1065 92.9237L77.5073 92.66C81.0557 90.3547 84.8094 87.0725 87.781 83.6536C94.1056 76.3957 98.1818 67.5457 99.5503 58.1095C99.9511 55.3646 100 54.5538 100 50.8321C100 47.1104 99.9511 46.2996 99.5503 43.5547C96.8328 24.7898 83.4702 9.02373 65.347 3.18228C62.1505 2.14684 58.7488 1.43376 54.9365 1.00395C53.998 0.906267 47.5367 0.798816 46.7253 0.876963ZM67.1945 31.1001C67.6637 31.3345 68.045 31.7839 68.1818 32.2528C68.26 32.5067 68.2796 37.9379 68.26 50.1776L68.2307 67.741L65.132 62.9936L62.0235 58.2462V45.479C62.0235 37.2248 62.0626 32.5849 62.1212 32.3602C62.2776 31.8132 62.6197 31.3834 63.089 31.1294C63.4897 30.9243 63.6364 30.9047 65.1711 30.9047C66.6178 30.9047 66.8719 30.9243 67.1945 31.1001Z" fill="#CDCDCD"/>
</g>
<defs>
<clipPath id="clip0_196_556">
<rect width="100" height="99.9445" fill="white" transform="translate(0 0.850067)"/>
</clipPath>
</defs>
</svg>
