<svg width="100" height="101" viewBox="0 0 100 101" fill="none" xmlns="http://www.w3.org/2000/svg">
<path d="M49.9817 10.2199C48.8411 10.2199 47.7007 10.4995 46.7163 11.0617L15.7471 28.9289C13.7471 30.0846 12.5 32.2725 12.5 34.5838V66.9998C12.5 69.3423 13.7471 71.499 15.7471 72.6547L23.877 77.3396C27.8145 79.276 29.2185 79.2733 30.9998 79.2733C36.8435 79.2733 40.1855 75.7445 40.1855 69.6229V36.1759C40.1855 35.6762 39.7822 35.267 39.2822 35.267H35.376C34.8447 35.267 34.4666 35.6762 34.4666 36.1759V69.5924C34.4666 72.3409 31.6262 75.0261 27.0325 72.7462L18.5303 67.8417C18.2178 67.6855 18.0298 67.3434 18.0298 66.9998V34.6143C18.0298 34.2395 18.2178 33.9232 18.5303 33.7358L49.4995 15.8747C49.7808 15.6873 50.1575 15.6873 50.47 15.8747L81.4392 33.7358C81.7517 33.9232 81.9397 34.2402 81.9397 34.5838V66.9998C81.9397 67.3434 81.751 67.6855 81.4697 67.8417L50.47 85.7394C50.1887 85.8956 49.7808 85.8956 49.4995 85.7394L41.5283 81.024C41.3096 80.8679 41.0024 80.8381 40.7837 80.963C38.5649 82.2123 38.1587 82.3675 36.0962 83.0859C35.5962 83.242 34.8145 83.5534 36.377 84.4279L46.7163 90.5524C47.7163 91.1146 48.8445 91.4247 49.9695 91.4247C51.1257 91.4247 52.2471 91.1146 53.2471 90.5524L84.2529 72.6547C86.2529 71.499 87.5 69.3423 87.5 66.9998V34.6143C87.5 32.2718 86.2529 30.1151 84.2529 28.9594L53.2471 11.0617C52.2627 10.4995 51.1223 10.2199 49.9817 10.2199ZM58.313 35.2243C49.4692 35.2243 44.1895 38.9698 44.1895 45.2163C44.1895 51.9938 49.4346 53.8648 57.9346 54.7081C68.0908 55.7075 68.8721 57.2111 68.8721 59.21C68.8721 62.6456 66.0955 64.1145 59.5642 64.1145C51.3455 64.1145 49.5317 62.0502 48.938 57.9899C48.8755 57.5527 48.5027 57.2396 48.0652 57.2396H44.0308C43.5308 57.2396 43.158 57.6496 43.158 58.1181C43.158 63.3339 46.0017 69.5436 59.5642 69.5436C69.3767 69.5436 75 65.6756 75 58.9294C75 52.2456 70.468 50.4619 60.968 49.1814C51.3118 47.9321 50.3418 47.2759 50.3418 45.0272C50.3418 43.1532 51.188 40.69 58.313 40.69C64.6567 40.69 67.0305 42.0598 67.9993 46.3387C68.093 46.7447 68.4346 47.0585 68.8721 47.0585H72.9065C73.1565 47.0585 73.3721 46.9348 73.5596 46.7474C73.7158 46.5913 73.8105 46.3392 73.7793 46.0581C73.1543 38.6872 68.2505 35.2243 58.313 35.2243Z" fill="#CDCDCD"/>
</svg>
