<svg width="100" height="108" viewBox="0 0 100 108" fill="none" xmlns="http://www.w3.org/2000/svg">
<path d="M74.3751 0.850067C70.7692 0.850067 67.6422 1.56334 64.7594 2.28599C69.8114 4.44457 72.9383 7.09117 74.6192 8.29247C78.4693 11.6523 80.629 15.0216 84.4791 20.5494C85.1927 21.7507 86.3947 23.4307 87.1177 26.0679C87.8408 28.4705 87.8408 30.3944 87.8408 32.3184C87.8408 34.965 87.5967 37.1236 87.3525 39.2821C87.1177 40.9715 87.1178 41.6941 86.883 42.1728C86.883 42.4168 86.883 42.6514 86.6388 43.1301C86.6388 44.3313 86.6388 44.8194 86.883 45.7767C86.883 46.7339 87.1177 47.7006 87.1177 49.3805C87.3619 52.5058 87.3619 54.6644 86.883 57.3016V58.2683C86.3947 60.4268 85.9158 62.5948 84.7138 64.5094C84.958 64.9974 85.1927 65.232 85.4369 65.7107C86.6388 64.0307 87.5967 62.3508 88.5545 60.4362C91.4467 55.143 93.1276 50.5818 94.3295 47.222C96.4893 40.9715 97.6913 36.4009 98.4143 33.041C100.095 25.8333 100.339 22.4734 99.6163 18.6255C99.6163 17.4242 99.1374 15.2562 97.9354 13.0977C95.2873 8.29247 91.2025 6.13389 88.3197 4.68858C86.3947 3.7313 81.3427 1.08469 74.3751 0.850067ZM22.2962 1.91059C19.5261 1.85427 16.1456 2.16398 12.3519 3.96593C11.1499 4.45395 7.54402 6.13389 4.66119 9.97241C2.73617 12.375 1.29945 15.9789 0.576391 20.0614C-0.146665 23.6653 -0.390814 28.0012 1.0553 36.1663C2.01311 41.9288 2.98032 45.7767 4.90534 53.6977C5.14949 54.6644 6.58621 58.9909 9.71319 68.6013L9.94795 69.0799C10.4362 70.7599 11.873 74.3637 15 77.9676C17.1597 80.3702 19.0847 81.8155 20.775 81.8155H21.2445C24.3715 81.8155 26.5407 79.4129 28.4563 77.489C28.4563 77.245 33.0294 71.7265 34.7103 69.8026C34.4661 69.5586 33.9966 69.5586 33.7525 69.3145C30.8696 67.6346 28.7005 64.9974 27.0196 62.1068C24.1367 56.8229 24.3715 51.5391 24.8504 48.8925L25.0946 44.8194C24.1367 38.3249 24.3809 32.0838 25.5829 25.8333C26.5407 20.5494 27.7426 15.2656 32.0622 9.73778C33.5083 7.81383 35.1892 6.13389 36.87 4.93259C33.0294 3.25266 28.9446 2.28599 24.8504 2.05136C24.071 1.98567 23.2165 1.92935 22.2962 1.91059ZM52.4956 3.96593C51.2936 3.96593 50.0916 3.96593 48.8897 4.20994C44.0818 5.16722 39.5181 7.81383 35.9122 12.375C32.3063 16.9456 31.3485 21.2627 30.3907 26.3119C29.9024 28.2359 29.9024 29.9158 29.6583 31.8397C31.1044 30.6384 33.0294 29.1931 35.9122 28.4705C37.5931 27.9918 41.9221 26.5559 45.5279 28.7145C46.7299 29.4372 48.4108 30.8825 50.0916 34.965C53.6975 45.054 50.101 55.387 49.6221 56.3443C49.378 57.3016 48.8991 58.0242 48.6549 58.5029C48.176 59.7042 47.6971 60.6708 47.2182 62.5948C46.9741 64.2747 46.7299 65.72 46.7299 67.4C47.453 67.4 48.176 67.6346 48.8897 68.1132C50.0916 69.3145 50.3358 71.0039 50.5799 71.7171C51.0588 75.565 51.0589 80.3702 51.0589 85.1754C51.0589 89.0233 51.0588 92.6272 51.2936 95.0298C51.7819 100.558 53.4628 104.396 55.8667 106.32C57.5476 107.765 59.7074 107.756 60.9093 108H61.3976C65.0035 108 70.7692 105.597 72.9289 102.238C74.1309 100.314 74.6192 98.6337 75.0981 96.2311C75.3423 94.7858 75.3329 94.0725 75.577 92.6272C75.577 91.9045 75.8212 90.7032 75.8212 89.2673C75.8212 88.066 76.0559 86.6207 76.3001 84.9314C76.5442 80.8489 77.2579 76.0531 77.502 73.4065C77.7462 70.2812 79.1829 67.6346 80.3849 65.9547C78.704 65.7107 77.0231 64.2747 76.0653 61.8721C74.6192 59.2255 74.3751 58.5029 74.1309 57.3016C73.8962 56.3443 73.4172 55.143 71.727 51.5391C68.1211 43.3741 67.6516 40.9715 67.6516 39.0475C67.4074 36.4009 67.1633 32.8064 70.0555 30.4038C74.3751 26.5559 79.906 26.7999 82.7888 27.7572V27.2692C82.3099 25.3546 81.3521 23.9093 80.629 22.952C77.0231 17.4242 75.0981 14.543 71.727 11.6617C70.2903 10.4604 66.6844 7.56982 61.3976 5.65525C58.9937 4.93259 56.1015 3.96593 52.4956 3.96593ZM79.0702 32.1401C77.3236 32.0181 75.0981 32.3184 73.1731 34.0077C72.2153 34.965 72.2153 36.8889 72.4594 38.5689C72.4594 39.7702 72.6942 41.4501 76.3001 49.6246C77.9809 53.4631 78.4599 54.6644 78.704 55.631C78.9482 56.5883 79.1829 57.067 80.629 59.7042C80.8732 60.1922 81.1079 60.6708 81.5868 61.1495C82.0658 60.4268 82.3099 59.2255 82.5446 57.3016L82.7888 56.5883C83.2677 54.4297 83.0329 52.7404 83.0329 49.8592C83.0329 48.4139 82.7888 47.4566 82.7888 46.7339C82.5446 45.5326 82.5446 44.5754 82.5446 43.1301C82.0657 42.4074 82.0657 42.1728 82.3099 41.6847C82.3099 41.2061 82.5446 40.4928 82.7888 39.0475C83.0329 37.1236 83.2771 35.4436 83.2771 33.5197C82.7888 33.2757 82.554 33.041 82.0751 32.8064C82.0751 32.8064 80.8074 32.2621 79.0702 32.1401ZM41.4807 33.088C39.9501 32.9097 38.1941 33.4071 37.1142 33.7637C34.4661 34.4864 32.7946 36.1663 31.5927 37.1236C30.8696 37.8462 30.1466 38.5689 29.4235 39.5262C29.4235 41.2061 29.6583 42.8954 29.9024 44.5754V44.8194L29.4235 49.6246C28.9446 51.7831 28.7005 55.8657 31.1044 59.9482C32.3063 62.3508 33.9966 64.2747 36.1564 65.476C37.6025 66.4333 39.5181 67.156 41.6779 67.644C41.6779 65.9547 41.9221 64.0307 42.1662 62.3508C42.6451 59.9482 43.124 58.7469 43.8471 57.3016C44.0912 56.5883 44.326 56.1097 44.8143 55.387C45.049 54.6644 48.4108 45.5326 45.2838 37.1236C44.5701 35.1996 43.8471 33.9983 42.8799 33.5197C42.4667 33.2757 41.9784 33.1443 41.4807 33.088ZM76.7508 34.4582C77.38 34.4207 77.9809 34.477 78.2251 34.721C78.9482 35.1996 77.9809 36.4009 77.7368 36.6449C77.502 36.8889 77.0231 37.3676 76.3001 37.6116C75.3423 37.8462 74.6192 37.1236 74.3751 37.1236C74.1309 36.8796 73.4172 36.1663 73.6614 35.4436C73.8961 34.965 74.1403 34.965 75.0981 34.721C75.4549 34.599 76.1217 34.4864 76.7508 34.4582ZM40.6168 36.4478C41.4244 36.3915 42.1005 36.7012 42.6451 36.8796C43.3682 37.1236 44.0818 37.3676 44.0818 37.8462C44.326 38.5689 43.6123 39.0475 43.3682 39.2821C42.6451 40.0048 41.4431 40.0142 41.4431 40.0142C40.2412 40.0142 39.5181 39.2915 39.0392 38.5689C38.7951 38.3249 38.5603 37.8462 38.8045 37.3676C39.0392 36.8889 39.5181 36.6449 39.7623 36.6449C40.0628 36.5229 40.3445 36.4666 40.6168 36.4478ZM84.7138 67.8786C83.5119 69.5586 81.831 71.7265 81.5868 74.6077C81.5868 75.0864 81.5868 75.3304 81.3427 75.8091C83.2677 76.2877 84.958 76.2877 86.6388 76.0531C90.4889 75.565 93.1276 73.6411 93.6065 73.1624C95.2873 71.9611 97.4565 69.5586 96.9682 68.6013C96.7335 68.1226 96.0104 68.3573 92.1604 68.6013C91.2025 68.6013 88.3197 69.3239 86.3947 68.8453H85.9158C85.4369 68.6013 84.958 68.3573 84.7138 67.8786ZM42.8799 72.6838C42.401 73.4065 41.6873 73.8851 41.2084 74.3637C39.2834 75.565 36.87 76.5317 34.4661 77.0103C32.3063 77.733 31.1044 77.733 31.1044 78.4557C30.8602 79.4129 33.2642 80.6142 34.4661 81.0929C38.5603 82.7728 42.6451 81.8155 43.3682 81.5715C43.8471 81.3275 45.049 80.8489 46.251 80.1262C46.251 77.489 46.0162 75.0864 45.7721 73.1624V72.9184H45.5279C44.8049 72.9184 43.8471 72.9278 42.8799 72.6838Z" fill="#CDCDCD"/>
</svg>
