<svg width="48" height="52" viewBox="0 0 48 52" fill="none" xmlns="http://www.w3.org/2000/svg">
<path d="M35.7 0C33.9692 0 32.4683 0.34256 31.0845 0.689626C33.5094 1.72632 35.0104 2.9974 35.8172 3.57434C37.6652 5.18797 38.7019 6.80612 40.5499 9.46095C40.8925 10.0379 41.4695 10.8447 41.8165 12.1113C42.1636 13.2652 42.1636 14.1892 42.1636 15.1132C42.1636 16.3843 42.0464 17.421 41.9292 18.4576C41.8165 19.269 41.8165 19.616 41.7038 19.8459C41.7038 19.9631 41.7038 20.0758 41.5866 20.3057C41.5866 20.8826 41.5866 21.117 41.7038 21.5767C41.7038 22.0365 41.8165 22.5008 41.8165 23.3076C41.9337 24.8085 41.9337 25.8452 41.7038 27.1118V27.576C41.4695 28.6127 41.2396 29.6539 40.6626 30.5734C40.7798 30.8078 40.8925 30.9205 41.0097 31.1504C41.5866 30.3436 42.0464 29.5367 42.5061 28.6172C43.8944 26.0751 44.7012 23.8845 45.2782 22.2709C46.3149 19.269 46.8918 17.0739 47.2389 15.4603C48.0457 11.9986 48.1629 10.385 47.8158 8.53694C47.8158 7.96 47.5859 6.9188 47.009 5.88211C45.7379 3.57434 43.7772 2.53764 42.3935 1.84351C41.4695 1.38376 39.0445 0.112684 35.7 0ZM10.7022 0.509332C9.37253 0.482287 7.74988 0.631031 5.9289 1.49644C5.35196 1.73083 3.62113 2.53764 2.23737 4.38116C1.31336 5.53504 0.623734 7.26587 0.276667 9.22657C-0.0703992 10.9574 -0.187591 13.0398 0.506544 16.9612C0.966294 19.7287 1.43055 21.5767 2.35456 25.381C2.47175 25.8452 3.16138 27.9231 4.66233 32.5387L4.77502 32.7685C5.0094 33.5753 5.69902 35.3062 7.19998 37.037C8.23667 38.1909 9.16068 38.885 9.972 38.885H10.1974C11.6983 38.885 12.7395 37.7311 13.659 36.8071C13.659 36.6899 15.8541 34.0396 16.6609 33.1156C16.5437 32.9984 16.3184 32.9984 16.2012 32.8812C14.8174 32.0744 13.7762 30.8078 12.9694 29.4196C11.5856 26.8819 11.6983 24.3443 11.9282 23.0732L12.0454 21.117C11.5856 17.9979 11.7028 15.0005 12.2798 11.9986C12.7395 9.46095 13.3165 6.92331 15.3899 4.26847C16.084 3.34446 16.8908 2.53764 17.6976 1.9607C15.8541 1.15388 13.8934 0.689626 11.9282 0.576942C11.5541 0.545391 11.1439 0.518346 10.7022 0.509332ZM25.1979 1.49644C24.6209 1.49644 24.044 1.49644 23.467 1.61364C21.1593 2.07339 18.9687 3.34446 17.2379 5.53504C15.507 7.73013 15.0473 9.80351 14.5875 12.2285C14.3532 13.1525 14.3532 13.9593 14.236 14.8833C14.9301 14.3064 15.8541 13.6122 17.2379 13.2652C18.0447 13.0353 20.1226 12.3457 21.8534 13.3824C22.4304 13.7294 23.2372 14.4236 24.044 16.3843C25.7748 21.2297 24.0485 26.1923 23.8186 26.652C23.7014 27.1118 23.4716 27.4589 23.3544 27.6887C23.1245 28.2657 22.8946 28.7299 22.6647 29.6539C22.5475 30.4608 22.4304 31.1549 22.4304 31.9617C22.7774 31.9617 23.1245 32.0744 23.467 32.3043C24.044 32.8812 24.1612 33.6925 24.2784 34.0351C24.5082 35.8831 24.5082 38.1909 24.5082 40.4986C24.5082 42.3467 24.5082 44.0775 24.6209 45.2314C24.8553 47.8862 25.6621 49.7297 26.816 50.6537C27.6228 51.3479 28.6595 51.3434 29.2365 51.4606H29.4709C31.2017 51.4606 33.9692 50.3067 35.0059 48.693C35.5828 47.769 35.8172 46.9622 36.0471 45.8083C36.1643 45.1142 36.1598 44.7716 36.277 44.0775C36.277 43.7304 36.3942 43.1535 36.3942 42.4639C36.3942 41.8869 36.5068 41.1928 36.624 40.3815C36.7412 38.4208 37.0838 36.1175 37.201 34.8464C37.3182 33.3455 38.0078 32.0744 38.5847 31.2676C37.7779 31.1504 36.9711 30.4608 36.5114 29.3069C35.8172 28.0358 35.7 27.6887 35.5828 27.1118C35.4702 26.652 35.2403 26.0751 34.429 24.3443C32.6981 20.4229 32.4728 19.269 32.4728 18.345C32.3556 17.0739 32.2384 15.3476 33.6266 14.1937C35.7 12.3457 38.3549 12.4629 39.7386 12.9226V12.6882C39.5087 11.7687 39.049 11.0746 38.7019 10.6148C36.9711 7.96 36.0471 6.57624 34.429 5.19248C33.7393 4.61554 32.0085 3.22727 29.4709 2.30777C28.317 1.9607 26.9287 1.49644 25.1979 1.49644ZM37.9537 15.0275C37.1153 14.969 36.0471 15.1132 35.1231 15.9245C34.6633 16.3843 34.6633 17.3083 34.7805 18.1151C34.7805 18.692 34.8932 19.4988 36.624 23.4248C37.4309 25.2683 37.6607 25.8452 37.7779 26.3095C37.8951 26.7692 38.0078 26.9991 38.7019 28.2657C38.8191 28.5001 38.9318 28.7299 39.1617 28.9598C39.3916 28.6127 39.5087 28.0358 39.6214 27.1118L39.7386 26.7692C39.9685 25.7325 39.8558 24.9212 39.8558 23.5374C39.8558 22.8433 39.7386 22.3836 39.7386 22.0365C39.6214 21.4596 39.6214 20.9998 39.6214 20.3057C39.3916 19.9586 39.3916 19.8459 39.5087 19.6115C39.5087 19.3817 39.6214 19.0391 39.7386 18.345C39.8558 17.421 39.973 16.6141 39.973 15.6901C39.7386 15.5729 39.6259 15.4603 39.3961 15.3476C39.3961 15.3476 38.7876 15.0861 37.9537 15.0275ZM19.9107 15.4828C19.176 15.3972 18.3332 15.636 17.8148 15.8073C16.5437 16.1544 15.7414 16.9612 15.1645 17.421C14.8174 17.768 14.4704 18.1151 14.1233 18.5748C14.1233 19.3817 14.236 20.193 14.3532 20.9998V21.117L14.1233 23.4248C13.8934 24.4615 13.7762 26.4222 14.9301 28.3829C15.507 29.5367 16.3184 30.4608 17.3551 31.0377C18.0492 31.4974 18.9687 31.8445 20.0054 32.0789C20.0054 31.2676 20.1226 30.3436 20.2398 29.5367C20.4697 28.3829 20.6995 27.8059 21.0466 27.1118C21.1638 26.7692 21.2765 26.5394 21.5109 26.1923C21.6235 25.8452 23.2372 21.4596 21.7362 17.421C21.3937 16.4969 21.0466 15.92 20.5823 15.6901C20.384 15.5729 20.1496 15.5098 19.9107 15.4828ZM36.8404 16.1409C37.1424 16.1228 37.4309 16.1499 37.548 16.2671C37.8951 16.4969 37.4309 17.0739 37.3137 17.1911C37.201 17.3083 36.9711 17.5381 36.624 17.6553C36.1643 17.768 35.8172 17.421 35.7 17.421C35.5828 17.3038 35.2403 16.9612 35.3575 16.6141C35.4702 16.3843 35.5873 16.3843 36.0471 16.2671C36.2184 16.2085 36.5384 16.1544 36.8404 16.1409ZM19.4961 17.0964C19.8837 17.0694 20.2082 17.2181 20.4697 17.3038C20.8167 17.421 21.1593 17.5381 21.1593 17.768C21.2765 18.1151 20.9339 18.345 20.8167 18.4576C20.4697 18.8047 19.8927 18.8092 19.8927 18.8092C19.3158 18.8092 18.9687 18.4622 18.7388 18.1151C18.6216 17.9979 18.5089 17.768 18.6261 17.5381C18.7388 17.3083 18.9687 17.1911 19.0859 17.1911C19.2301 17.1325 19.3653 17.1054 19.4961 17.0964ZM40.6626 32.1916C40.0857 32.9984 39.2789 34.0396 39.1617 35.4234C39.1617 35.6532 39.1617 35.7704 39.0445 36.0003C39.9685 36.2302 40.7798 36.2302 41.5866 36.1175C43.4347 35.8831 44.7012 34.9591 44.9311 34.7292C45.7379 34.1523 46.7791 32.9984 46.5447 32.5387C46.4321 32.3088 46.085 32.4215 44.237 32.5387C43.7772 32.5387 42.3935 32.8857 41.4695 32.6558H41.2396C41.0097 32.5386 40.7798 32.4215 40.6626 32.1916ZM20.5823 34.4994C20.3525 34.8464 20.0099 35.0763 19.78 35.3062C18.856 35.8831 17.6976 36.3474 16.5437 36.5772C15.507 36.9243 14.9301 36.9243 14.9301 37.2714C14.8129 37.7311 15.9668 38.3081 16.5437 38.5379C18.5089 39.3448 20.4697 38.885 20.8167 38.7678C21.0466 38.6506 21.6235 38.4208 22.2005 38.0737C22.2005 36.8071 22.0878 35.6532 21.9706 34.7292V34.612H21.8534C21.5063 34.612 21.0466 34.6165 20.5823 34.4994Z" fill="#808080"/>
</svg>
