<svg xmlns="http://www.w3.org/2000/svg" version="1.1" xmlns:xlink="http://www.w3.org/1999/xlink" xmlns:svgjs="http://svgjs.com/svgjs" width="512" height="512" x="0" y="0" viewBox="0 0 64 64" style="enable-background:new 0 0 512 512" xml:space="preserve" class=""><g><path d="m41 50h2v2h-2z" fill="#616161" data-original="#000000" class=""></path><path d="m61 50h2v2h-2z" fill="#616161" data-original="#000000" class=""></path><path d="m51 40h2v2h-2z" fill="#616161" data-original="#000000" class=""></path><path d="m43.93 42.93h2v2h-2z" transform="matrix(.707 -.707 .707 .707 -17.9 44.64)" fill="#616161" data-original="#000000" class=""></path><path d="m58.07 57.07h2v2h-2z" transform="matrix(.707 -.707 .707 .707 -23.76 58.76)" fill="#616161" data-original="#000000" class=""></path><path d="m43.93 57.07h2v2h-2z" transform="matrix(.707 -.707 .707 .707 -27.9 48.78)" fill="#616161" data-original="#000000" class=""></path><path d="m58.07 42.93h2v2h-2z" transform="matrix(.707 -.707 .707 .707 -13.76 54.64)" fill="#616161" data-original="#000000" class=""></path><path d="m56.41 45.56a7 7 0 1 0 -7.91 11.5v2.44a3.5 3.5 0 0 0 7 0v-2.44a7 7 0 0 0 .91-11.5zm-2.91 13.94a1.5 1.5 0 0 1 -3 0v-.5h3zm.58-4a1 1 0 0 0 -.58.91v.59h-3v-.55a1 1 0 0 0 -.58-.91 5 5 0 0 1 1-9.42 5 5 0 0 1 3.18 9.42z" fill="#616161" data-original="#000000" class=""></path><path d="m24.06 33.81a1.58 1.58 0 0 0 .18 1.27l1.13 1.92a1.72 1.72 0 0 0 2.3.61l.26-.15a7.19 7.19 0 0 0 1.24.7v.22a1.69 1.69 0 0 0 1.7 1.62h2.26a1.69 1.69 0 0 0 1.7-1.67v-.22a6.83 6.83 0 0 0 1.24-.7l.26.15a1.72 1.72 0 0 0 2.3-.61l1.13-1.87a1.58 1.58 0 0 0 .18-1.27 1.66 1.66 0 0 0 -.81-1l-.21-.12c0-.21 0-.43 0-.65s0-.44 0-.65l.21-.12a1.66 1.66 0 0 0 .81-1 1.58 1.58 0 0 0 -.18-1.27l-1.13-1.87a1.72 1.72 0 0 0 -2.3-.61l-.26.15a7.19 7.19 0 0 0 -1.24-.7v-.22a1.69 1.69 0 0 0 -1.7-1.75h-2.26a1.69 1.69 0 0 0 -1.7 1.67v.22a6.83 6.83 0 0 0 -1.24.7l-.26-.15a1.72 1.72 0 0 0 -2.3.61l-1.13 1.87a1.58 1.58 0 0 0 -.18 1.27 1.66 1.66 0 0 0 .81 1l.21.12v.65s0 .44 0 .65l-.21.12a1.66 1.66 0 0 0 -.81 1.08zm3-1.81c0-.21 0-.42 0-.63a1.65 1.65 0 0 0 -.85-1.67l-.1-.06.79-1.32.18.1a1.76 1.76 0 0 0 1.92-.13 4.84 4.84 0 0 1 1.09-.61 1.69 1.69 0 0 0 1.09-1.56v-.12h1.66v.12a1.69 1.69 0 0 0 1.09 1.56 5.14 5.14 0 0 1 1.1.61 1.74 1.74 0 0 0 1.87.13l.18-.1.79 1.32-.1.06a1.67 1.67 0 0 0 -.86 1.67 4.46 4.46 0 0 1 .09.63v.63a1.65 1.65 0 0 0 .85 1.67l.1.06-.79 1.32-.18-.1a1.76 1.76 0 0 0 -1.88.13 4.84 4.84 0 0 1 -1.09.61 1.69 1.69 0 0 0 -1.09 1.56v.12h-1.75v-.12a1.69 1.69 0 0 0 -1.09-1.56 5.14 5.14 0 0 1 -1.1-.61 1.74 1.74 0 0 0 -1.87-.13l-.18.1-.79-1.32.1-.06a1.67 1.67 0 0 0 .86-1.67 4.46 4.46 0 0 1 -.05-.63z" fill="#616161" data-original="#000000" class=""></path><path d="m32 35.25a3.25 3.25 0 1 0 -3.25-3.25 3.26 3.26 0 0 0 3.25 3.25zm0-4.5a1.25 1.25 0 1 1 -1.25 1.25 1.25 1.25 0 0 1 1.25-1.25z" fill="#616161" data-original="#000000" class=""></path><path d="m20 33h1v-2h-1a11 11 0 0 0 0 22h12.39l-1.9 1.14 1 1.72 5-3a1 1 0 0 0 0-1.72l-5-3-1 1.72 1.9 1.14h-12.39a9 9 0 0 1 0-18z" fill="#616161" data-original="#000000" class=""></path><path d="m44 11h-17v2h17a9 9 0 0 1 0 18h-1v2h1a11 11 0 0 0 0-22z" fill="#616161" data-original="#000000" class=""></path><path d="m12 23a11 11 0 1 0 -11-11 11 11 0 0 0 11 11zm0-20a9 9 0 1 1 -9 9 9 9 0 0 1 9-9z" fill="#616161" data-original="#000000" class=""></path><path d="m12 7a2 2 0 0 1 0 4 1 1 0 0 0 -1 1v3h2v-2.13a4 4 0 1 0 -5-3.87h2a2 2 0 0 1 2-2z" fill="#616161" data-original="#000000" class=""></path><path d="m11 17h2v2h-2z" fill="#616161" data-original="#000000" class=""></path></g></svg>