<svg xmlns="http://www.w3.org/2000/svg" version="1.1" xmlns:xlink="http://www.w3.org/1999/xlink" xmlns:svgjs="http://svgjs.com/svgjs" width="512" height="512" x="0" y="0" viewBox="0 0 513.181 513.181" style="enable-background:new 0 0 512 512" xml:space="preserve" class=""><g><g><g><path d="m468.227 408.902v-106.637c0-56.526-22.014-109.67-61.987-149.644-39.983-39.972-93.131-61.986-149.653-61.986-51.783 0-101.619 18.897-140.329 53.211-3.1 2.748-3.385 7.488-.637 10.587 2.747 3.099 7.487 3.385 10.587.637 35.963-31.879 82.266-49.436 130.378-49.436 52.516 0 101.897 20.454 139.047 57.593 37.14 37.14 57.593 86.517 57.593 139.037v100.187c-6.88-11.675-16.984-20.964-28.92-26.87v-72.046c0-44.807-17.447-86.925-49.125-118.592-31.67-31.681-73.788-49.128-118.594-49.128-92.481 0-167.72 75.239-167.72 167.72v72.058c-11.938 5.909-22.03 15.207-28.91 26.885v-100.213c0-45.31 14.974-87.883 43.303-123.116 2.596-3.228 2.083-7.949-1.145-10.545-3.229-2.595-7.949-2.082-10.544 1.146-30.06 37.385-46.614 84.447-46.614 132.516v106.636c-25.14 2.109-44.957 23.23-44.957 48.906 0 27.07 22.023 49.094 49.094 49.094h140.995c27.07 0 49.093-22.023 49.093-49.094 0-25.947-20.237-47.244-45.755-48.967v-98.085c0-34.833 28.333-63.17 63.16-63.17 16.872 0 32.734 6.571 44.665 18.501 11.927 11.936 18.495 27.8 18.495 44.669v18.136c0 4.142 3.358 7.5 7.5 7.5s7.5-3.358 7.5-7.5v-18.136c0-20.874-8.127-40.503-22.887-55.273-14.765-14.765-34.395-22.897-55.273-22.897-43.098 0-78.16 35.067-78.16 78.17v90.386c-6.977-11.259-16.994-20.19-28.75-25.859v-69.417c0-58.951 47.959-106.91 106.91-106.91 28.566 0 55.413 11.12 75.597 31.313 20.192 20.192 31.313 47.04 31.313 75.597v69.421c-11.757 5.672-21.774 14.606-28.75 25.869v-37.292c0-4.142-3.358-7.5-7.5-7.5s-7.5 3.358-7.5 7.5v44.978c-25.514 1.728-45.747 23.022-45.747 48.966 0 27.07 22.023 49.094 49.094 49.094h140.995c27.07 0 49.093-22.023 49.093-49.094-.001-25.675-19.817-46.796-44.955-48.906zm-297.222 11.46c1.29 3.836 5.393 5.957 9.265 4.793 3.186-.956 6.489-1.441 9.818-1.441 18.799 0 34.093 15.294 34.093 34.093s-15.294 34.094-34.093 34.094h-140.994c-18.8 0-34.094-15.294-34.094-34.093s15.294-34.093 34.094-34.093c3.329 0 6.632.485 9.818 1.441 3.872 1.16 7.975-.958 9.265-4.793 7.431-22.103 28.093-36.953 51.414-36.953 23.32-.001 43.982 14.85 51.414 36.952zm171.786-200.699c-23.016-23.026-53.631-35.708-86.205-35.708-67.222 0-121.91 54.688-121.91 121.91v64.198c-4.88-1.086-9.932-1.654-15.085-1.654-5.38 0-10.646.627-15.725 1.808v-66.682c0-84.21 68.51-152.72 152.72-152.72 40.799 0 79.149 15.886 107.988 44.734 28.846 28.836 44.732 67.187 44.732 107.986v66.674c-5.075-1.18-10.34-1.8-15.716-1.8-5.156 0-10.211.569-15.094 1.656v-64.2c0-32.564-12.681-63.178-35.705-86.202zm121.296 272.238h-140.994c-18.799 0-34.094-15.294-34.094-34.094 0-18.799 15.294-34.093 34.094-34.093 3.329 0 6.632.485 9.818 1.441 3.874 1.163 7.975-.957 9.265-4.793 7.432-22.103 28.094-36.953 51.414-36.953s43.982 14.851 51.414 36.953c1.29 3.836 5.392 5.957 9.265 4.793 3.186-.956 6.489-1.441 9.818-1.441 18.799 0 34.093 15.294 34.093 34.093.001 18.8-15.293 34.094-34.093 34.094z" fill="#616161" data-original="#000000"></path><path d="m396.644 108.36c18.923 8.346 29.884 25.895 34.734 35.612 1.903 3.813 5.737 6.182 10.006 6.182 4.27 0 8.104-2.369 10.006-6.182 4.851-9.718 15.813-27.267 34.735-35.612 4.05-1.786 6.667-5.799 6.667-10.224s-2.616-8.439-6.667-10.227c-18.922-8.345-29.884-25.894-34.735-35.612-1.903-3.813-5.737-6.181-10.006-6.181s-8.103 2.369-10.005 6.181c-4.849 9.718-15.811 27.267-34.734 35.612-4.051 1.787-6.668 5.801-6.667 10.227-.002 4.425 2.615 8.439 6.666 10.224zm44.74-43.064c6.035 10.299 16.274 23.871 31.798 32.839-15.525 8.969-25.763 22.54-31.798 32.839-6.035-10.299-16.273-23.869-31.798-32.839 15.525-8.969 25.763-22.54 31.798-32.839z" fill="#616161" data-original="#000000"></path><path d="m19.254 168.831c10.883 4.8 17.251 15.021 20.079 20.687 1.664 3.335 5.017 5.407 8.749 5.407s7.085-2.072 8.749-5.407c2.827-5.666 9.195-15.888 20.078-20.687 3.542-1.562 5.832-5.072 5.832-8.943s-2.289-7.381-5.831-8.942c-10.882-4.799-17.251-15.021-20.078-20.686-1.664-3.336-5.017-5.408-8.75-5.408s-7.085 2.072-8.75 5.408c-2.828 5.666-9.196 15.887-20.078 20.685-3.542 1.562-5.832 5.072-5.832 8.943s2.29 7.382 5.832 8.943zm28.828-23.901c3.379 4.971 8.094 10.494 14.382 14.959-6.287 4.465-11.003 9.988-14.382 14.959-3.379-4.971-8.094-10.494-14.382-14.959 6.287-4.465 11.003-9.989 14.382-14.959z" fill="#616161" data-original="#000000"></path><path d="m42.307 68.524c18.922 8.345 29.885 25.894 34.735 35.612 1.902 3.813 5.736 6.181 10.004 6.181h.001c4.268 0 8.103-2.368 10.006-6.181 4.849-9.718 15.811-27.267 34.735-35.613 4.05-1.787 6.667-5.8 6.667-10.225s-2.617-8.438-6.667-10.226c-18.923-8.346-29.885-25.895-34.735-35.613-1.903-3.813-5.737-6.181-10.006-6.18-4.268 0-8.102 2.369-10.004 6.181-4.85 9.718-15.813 27.267-34.736 35.613-4.05 1.787-6.667 5.8-6.667 10.225s2.616 8.439 6.667 10.226zm44.74-43.065c6.035 10.299 16.273 23.87 31.798 32.839-15.525 8.969-25.764 22.541-31.798 32.839-6.035-10.299-16.274-23.87-31.798-32.839 15.524-8.968 25.763-22.54 31.798-32.839z" fill="#616161" data-original="#000000"></path></g></g></g></svg>