<svg width="100" height="101" viewBox="0 0 100 101" fill="none" xmlns="http://www.w3.org/2000/svg">
<path fill-rule="evenodd" clip-rule="evenodd" d="M69.1094 8.81439C67.55 8.76199 65.9178 9.03371 64.2812 9.56398C61.0082 10.6245 57.5784 12.6913 54.0586 15.5528C52.6792 16.6743 51.2872 17.9562 49.8906 19.3164C48.5248 17.9908 47.1615 16.7432 45.8125 15.6465C42.2955 12.7873 38.875 10.7197 35.6094 9.66158C32.3438 8.60344 29.0944 8.57065 26.4258 10.1105C23.7571 11.6504 22.1612 14.4772 21.4453 17.8328C20.7294 21.1884 20.8083 25.1845 21.5273 29.6583C21.7771 31.2122 22.1333 32.8424 22.5391 34.5032C21.0142 34.9651 19.5334 35.4507 18.1602 35.9868C14.016 37.6045 10.5869 39.5399 8.08984 41.8429C5.59279 44.1459 3.98047 46.9411 3.98047 50.0102C3.98047 53.0794 5.59279 55.8707 8.08984 58.1737C10.5869 60.4767 14.016 62.416 18.1602 64.0337C19.6285 64.6069 21.2182 65.123 22.8594 65.611C22.2691 67.8154 21.7908 69.9546 21.4648 71.9824C20.7452 76.4598 20.6692 80.4564 21.3867 83.8196C22.1043 87.1828 23.701 90.0256 26.3828 91.5731C29.0647 93.1206 32.3285 93.0826 35.6016 92.0221C38.8746 90.9615 42.3005 88.8987 45.8203 86.0371C47.187 84.926 48.5695 83.6585 49.9531 82.3126C51.344 83.6666 52.732 84.94 54.1055 86.0566C57.6225 88.9159 61.0469 90.9795 64.3125 92.0377C67.5781 93.0958 70.8274 93.1286 73.4961 91.5887C76.1648 90.0488 77.7567 87.222 78.4727 83.8664C79.1886 80.5108 79.1097 76.5186 78.3906 72.0449C78.0638 70.0116 77.5852 67.8653 76.9922 65.6539C78.6875 65.1541 80.3275 64.6241 81.8398 64.0337C85.984 62.416 89.4131 60.4767 91.9102 58.1737C94.4072 55.8707 96.0195 53.0794 96.0195 50.0102C96.0195 46.9411 94.4072 44.1459 91.9102 41.8429C89.4131 39.5399 85.984 37.6045 81.8398 35.9868C80.4469 35.4431 78.9434 34.9511 77.3945 34.4837C77.8036 32.8127 78.1667 31.1708 78.418 29.6075C79.1376 25.1302 79.2137 21.1297 78.4961 17.7664C77.7786 14.4032 76.1779 11.5644 73.4961 10.0168C72.1552 9.24309 70.6687 8.8668 69.1094 8.81439ZM68.9258 12.8824C69.9043 12.9092 70.7391 13.1419 71.4531 13.5539C72.8812 14.378 73.9368 15.9818 74.5 18.6214C75.0632 21.261 75.0437 24.8274 74.3789 28.9634C74.1513 30.3794 73.8208 31.8802 73.4453 33.4179C69.3543 32.4339 64.8715 31.7037 60.0938 31.2746C57.6953 27.9537 55.2308 24.9282 52.7461 22.2444C54.0604 20.9622 55.3661 19.763 56.6406 18.7269C59.8921 16.0835 62.9703 14.2848 65.5391 13.4524C66.8235 13.0363 67.9473 12.8557 68.9258 12.8824ZM30.9727 12.8942C31.9568 12.8667 33.083 13.0468 34.3711 13.4642C36.9473 14.2989 40.0309 16.0968 43.2852 18.7425C44.5341 19.7578 45.8106 20.9342 47.0977 22.1859C44.5946 24.8917 42.1097 27.9433 39.6953 31.2941C34.9378 31.7311 30.4732 32.4652 26.4023 33.453C26.0297 31.9239 25.6991 30.4308 25.4727 29.0219C24.8073 24.8824 24.7907 21.3155 25.3555 18.6683C25.9203 16.0211 26.9845 14.4051 28.4258 13.5735C29.1464 13.1576 29.9885 12.9216 30.9727 12.8942ZM49.9531 25.1217C51.5823 26.8937 53.2119 28.8328 54.8281 30.9193C53.2401 30.8531 51.6326 30.8139 50 30.8139C48.3349 30.8139 46.6968 30.8544 45.0781 30.9232C46.6947 28.8351 48.3235 26.8951 49.9531 25.1217ZM50 34.8507C52.7198 34.8507 55.3707 34.9624 57.9492 35.1513C59.7235 37.6982 61.4573 40.4002 63.1094 43.2601C64.561 45.773 65.8747 48.282 67.0703 50.7598C65.862 53.2705 64.5264 55.8135 63.0547 58.3611C61.7592 60.6036 60.4064 62.7336 59.0312 64.7872C56.1186 65.0305 53.1006 65.1659 50 65.1659C46.8247 65.1659 43.7389 65.0225 40.7617 64.7677C39.4095 62.7436 38.0795 60.6459 36.8047 58.4392C35.3364 55.8974 34.0072 53.359 32.8008 50.8535C34.0122 48.3339 35.3474 45.7815 36.8242 43.225C38.4676 40.3801 40.1964 37.6937 41.9609 35.1591C44.5672 34.966 47.2489 34.8507 50 34.8507ZM63.0977 35.651C66.3946 36.0622 69.4902 36.633 72.3711 37.3181C71.5163 40.1188 70.4633 43.0442 69.1875 46.0632C68.3591 44.4673 67.5012 42.8659 66.5742 41.2612C65.4508 39.3165 64.2808 37.4626 63.0977 35.651ZM36.6875 35.6823C35.5293 37.4599 34.3897 39.2779 33.2891 41.1831C32.3502 42.8084 31.4744 44.4313 30.6367 46.0476C29.3719 43.0468 28.3253 40.138 27.4766 37.3532C30.336 36.6669 33.4135 36.0981 36.6875 35.6823ZM76.3281 38.38C77.7459 38.8087 79.1151 39.2561 80.3711 39.7464C84.1914 41.2377 87.2133 43.0036 89.1719 44.81C91.1304 46.6164 91.9805 48.3391 91.9805 50.0102C91.9805 51.6814 91.1304 53.4041 89.1719 55.2105C87.2133 57.0169 84.1914 58.7828 80.3711 60.2741C78.9754 60.8189 77.4419 61.313 75.8477 61.7811C74.7104 58.2654 73.2588 54.5977 71.5312 50.8535C73.5176 46.5548 75.1222 42.3636 76.3281 38.38ZM23.6055 38.3995C24.7976 42.3433 26.3816 46.4929 28.3398 50.7481C26.6009 54.5142 25.1422 58.2027 24 61.7381C22.4619 61.2823 20.9804 60.8017 19.6289 60.2741C15.8086 58.7828 12.7867 57.0169 10.8281 55.2105C8.86955 53.4041 8.01953 51.6814 8.01953 50.0102C8.01953 48.3391 8.86955 46.6164 10.8281 44.81C12.7867 43.0036 15.8086 41.2377 19.6289 39.7464C20.8655 39.2637 22.2118 38.8226 23.6055 38.3995ZM50 40.8279C44.5008 40.8279 40 45.3262 40 50.8223C40 56.3184 44.5008 60.8167 50 60.8167C55.4992 60.8167 60 56.3184 60 50.8223C60 45.3262 55.4992 40.8279 50 40.8279ZM30.6836 55.5501C31.525 57.1745 32.4001 58.8044 33.3438 60.438C34.0821 61.7162 34.8361 62.9603 35.6016 64.1821C32.9156 63.8098 30.3625 63.3386 27.9648 62.7805C28.7273 60.4466 29.6395 58.0239 30.6836 55.5501ZM69.2383 55.5501C70.2866 58.0297 71.1992 60.4563 71.9648 62.7961C69.5596 63.3535 66.9986 63.8232 64.3047 64.1938C65.0801 62.9571 65.846 61.6974 66.5938 60.4029C67.5305 58.7813 68.4022 57.1626 69.2383 55.5501ZM26.8125 66.6612C30.4321 67.5182 34.3554 68.1765 38.5156 68.6054C41.2928 72.6199 44.1859 76.2272 47.0977 79.3806C45.7956 80.6494 44.5051 81.8402 43.2422 82.867C39.9908 85.5104 36.9087 87.3051 34.3398 88.1375C31.771 88.9699 29.8539 88.86 28.4258 88.036C26.9977 87.2119 25.946 85.6081 25.3828 82.9685C24.8197 80.3289 24.8352 76.7664 25.5 72.6305C25.8016 70.7542 26.2523 68.7451 26.8125 66.6612ZM73.1211 66.6768C73.686 68.7734 74.138 70.7899 74.4414 72.6773C75.1068 76.8169 75.1234 80.3837 74.5586 83.031C73.9938 85.6782 72.9374 87.298 71.4961 88.1297C70.0548 88.9614 68.1192 89.0699 65.543 88.2351C62.9667 87.4003 59.8832 85.6025 56.6289 82.9568C55.3569 81.9226 54.0575 80.7222 52.7461 79.4431C55.6773 76.2773 58.5909 72.6517 61.3867 68.6132C65.5574 68.1871 69.4916 67.5328 73.1211 66.6768ZM43.7344 69.0153C45.7879 69.1272 47.8685 69.2027 50 69.2027C52.061 69.2027 54.0741 69.1317 56.0625 69.027C54.0299 71.7678 51.9581 74.2596 49.8945 76.5033C47.8322 74.2548 45.7643 71.7586 43.7344 69.0153Z" fill="#CDCDCD"/>
</svg>
