<svg width="42" height="48" viewBox="0 0 42 48" fill="none" xmlns="http://www.w3.org/2000/svg">
<g clip-path="url(#clip0_177_166)">
<path d="M40.5192 11.5907C38.8122 8.90199 35.1415 7.78507 30.1955 8.42614C30.0208 8.44674 29.8356 8.47784 29.6609 8.49844C29.589 8.33323 29.5171 8.16761 29.4348 8.0024C27.3064 3.46242 24.3964 0.959961 21.2294 0.959961C18.0624 0.959961 15.1423 3.46242 13.024 8.0024C12.9521 8.16761 12.8698 8.33323 12.7979 8.49844C12.6127 8.46774 12.438 8.44674 12.2633 8.42614C7.30729 7.77457 3.64662 8.90199 1.9396 11.5907C0.232971 14.2793 0.757129 18.095 3.41005 22.3349C3.75989 22.8935 4.14025 23.4518 4.55155 24C4.14025 24.5582 3.75989 25.1064 3.41005 25.6646C0.757129 29.9045 0.232971 33.7307 1.9396 36.4093C3.32771 38.6015 6.022 39.7495 9.65134 39.7495C10.5213 39.7447 11.3901 39.6861 12.2528 39.5734C12.4276 39.5528 12.6127 39.5217 12.7874 39.5011C12.8597 39.6667 12.9316 39.8319 13.014 39.9975C15.1423 44.5371 18.0523 47.04 21.2189 47.04C24.386 47.04 27.3064 44.5371 29.4243 39.9975C29.4962 39.8319 29.5786 39.6667 29.6505 39.5011C29.8356 39.5322 30.0103 39.5528 30.1855 39.5734C31.0474 39.6909 31.9166 39.7495 32.7866 39.7495C36.4163 39.7495 39.1102 38.6015 40.4983 36.4093C42.2053 33.7206 41.6808 29.9045 39.0283 25.6646C38.6784 25.1064 38.298 24.5481 37.8868 24C38.298 23.4413 38.6784 22.8935 39.0283 22.3349C41.7117 18.0849 42.2363 14.2688 40.5192 11.5907ZM14.8853 8.88139C16.6228 5.1586 18.9364 3.02818 21.2294 3.02818C23.5224 3.02818 25.836 5.1586 27.5735 8.88139C27.5747 8.88906 27.5783 8.89633 27.5839 8.90199C25.3998 9.43035 23.2694 10.1607 21.2189 11.0837C19.1709 10.1562 17.0397 9.42551 14.8544 8.90199C14.8748 8.90199 14.8748 8.89149 14.8853 8.88139ZM30.4939 24C30.4943 25.6545 30.4052 27.3083 30.2264 28.9532C28.9447 29.9933 27.606 30.96 26.2163 31.8487C24.6125 32.8844 22.9432 33.8139 21.2189 34.6307C19.4983 33.8074 17.829 32.8783 16.222 31.8487C14.8339 30.9576 13.4952 29.9909 12.2119 28.9532C11.8552 25.6606 11.8552 22.3389 12.2119 19.0463C14.9833 16.8064 18.0065 14.901 21.2189 13.3693C22.94 14.1921 24.6089 15.1212 26.2163 16.1508C27.6044 17.042 28.9431 18.0086 30.2264 19.0463C30.4052 20.6916 30.4943 22.345 30.4939 24ZM32.4576 20.9905C33.4646 21.9338 34.4125 22.9388 35.2957 24C34.4125 25.0607 33.4646 26.0658 32.4576 27.009C32.5195 26.0165 32.5504 25.0135 32.5504 24C32.5504 22.9865 32.5195 21.9835 32.4576 20.9905ZM29.8047 31.8903C29.4802 33.6806 29.009 35.441 28.3961 37.1537C26.7991 36.791 25.2319 36.3071 23.7076 35.706C24.9206 35.0649 26.134 34.3616 27.3369 33.5966C28.1804 33.0484 29.003 32.4796 29.8047 31.8903ZM18.7512 35.706C17.2297 36.3147 15.6617 36.7991 14.0627 37.1537C13.4498 35.441 12.9786 33.6806 12.6541 31.8903C13.4458 32.4796 14.2683 33.0484 15.1219 33.5861C16.3248 34.3616 17.5382 35.0649 18.7512 35.706ZM10.0012 27.009C8.99423 26.0658 8.04673 25.0607 7.16309 24C8.04673 22.9388 8.99423 21.9338 10.0012 20.9905C9.93932 21.9835 9.90839 22.9865 9.90839 24C9.90839 25.0135 9.93932 26.0165 10.0012 27.009ZM12.6541 16.1096C12.9786 14.3189 13.4498 12.5585 14.0627 10.8462C15.6597 11.2085 17.2273 11.6925 18.7512 12.2939C17.5382 12.935 16.3248 13.6383 15.1219 14.4034C14.2784 14.9515 13.4558 15.5203 12.6541 16.1096ZM27.3269 14.4034C26.134 13.6383 24.9206 12.9245 23.6971 12.2939C25.2186 11.6852 26.7867 11.2009 28.386 10.8462C28.9986 12.5585 29.4697 14.3189 29.7946 16.1096C29.003 15.5203 28.1804 14.9515 27.3269 14.4034ZM5.148 21.2285C2.96783 17.7537 2.43323 14.6413 3.66711 12.6971C4.65437 11.1459 6.79317 10.3081 9.68226 10.3081C10.4558 10.3114 11.2286 10.3635 11.9958 10.4632H12.0163C11.1844 12.8958 10.6057 15.4084 10.2892 17.9605C8.70464 19.2899 7.22937 20.7462 5.87781 22.3143C5.62075 21.9629 5.37413 21.6009 5.148 21.2285ZM11.9857 37.5262C11.2186 37.6264 10.4458 37.6781 9.67222 37.6813C6.78273 37.6813 4.64393 36.854 3.65706 35.2923C2.42319 33.3481 2.95779 30.2357 5.13756 26.7609C5.36369 26.399 5.61071 26.0266 5.86776 25.6646C7.21892 27.2332 8.6942 28.689 10.2787 30.0184C10.5956 32.5709 11.1744 35.0835 12.0062 37.5157C12.0062 37.5262 11.9958 37.5262 11.9857 37.5262ZM27.5735 39.1185C25.836 42.8413 23.5224 44.9717 21.2294 44.9717C18.9364 44.9717 16.6228 42.8413 14.8853 39.1185C14.8841 39.1109 14.8805 39.1036 14.8748 39.0979C17.059 38.5696 19.1894 37.8392 21.2398 36.9158C23.2879 37.8437 25.419 38.5744 27.6044 39.0979C27.5839 39.0979 27.5839 39.108 27.5735 39.1185ZM37.3108 26.7715C39.491 30.2458 40.0256 33.3586 38.7917 35.3028C37.5578 37.2466 34.5245 38.0638 30.473 37.5262H30.4526C31.2844 35.0936 31.8636 32.581 32.1801 30.0289C33.7646 28.6995 35.2399 27.2433 36.591 25.6751C36.838 26.0371 37.0847 26.399 37.3108 26.7715ZM32.1696 17.971C31.8531 15.4185 31.2743 12.9059 30.4425 10.4738H30.463C34.5141 9.9462 37.5474 10.7529 38.7812 12.6971C40.0151 14.6413 39.4805 17.7537 37.3007 21.2285C37.0746 21.5904 36.8276 21.9629 36.5705 22.3248C35.2254 20.7538 33.7533 19.2976 32.1696 17.971Z" fill="#808080"/>
<path d="M21.2297 19.9048C18.9808 19.9048 17.1577 21.7383 17.1577 24C17.1577 26.2617 18.9808 28.0948 21.2297 28.0948C23.4785 28.0948 25.3016 26.2617 25.3016 24C25.3 21.7387 23.4777 19.9064 21.2297 19.9048ZM21.2297 26.0266C20.1167 26.0266 19.2142 25.1194 19.2142 24C19.2142 22.8807 20.1167 21.973 21.2297 21.973C22.3427 21.973 23.2452 22.8807 23.2452 24C23.2432 25.1185 22.3419 26.025 21.2297 26.0266Z" fill="#808080"/>
</g>
<defs>
<clipPath id="clip0_177_166">
<rect width="42" height="48" fill="white"/>
</clipPath>
</defs>
</svg>
