<svg fill="none" height="512" viewBox="0 0 32 32" width="512" xmlns="http://www.w3.org/2000/svg"><g clip-rule="evenodd" fill="rgb(0,0,0)" fill-rule="evenodd"><path d="m18 5c0-.82843.6716-1.5 1.5-1.5h7.5c.8284 0 1.5.67157 1.5 1.5v7.5c0 .8284-.6716 1.5-1.5 1.5s-1.5-.6716-1.5-1.5v-6h-6c-.8284 0-1.5-.67157-1.5-1.5z"/><path d="m28.0607 3.93934c.5857.58579.5857 1.53553 0 2.12132l-9 9.00004c-.5858.5857-1.5356.5857-2.1214 0-.5857-.5858-.5857-1.5356 0-2.1214l9-8.99996c.5858-.58579 1.5356-.58579 2.1214 0z"/><path d="m6.5 10.5h7.5c.8284 0 1.5-.67157 1.5-1.5s-.6716-1.5-1.5-1.5h-8c-.66304 0-1.29893.26339-1.76777.73223s-.73223 1.10473-.73223 1.76777v16c0 .663.26339 1.2989.73223 1.7678.46885.4688 1.10473.7322 1.76777.7322h16c.663 0 1.2989-.2634 1.7678-.7322.4688-.4689.7322-1.1048.7322-1.7678v-8c0-.8284-.6716-1.5-1.5-1.5s-1.5.6716-1.5 1.5v7.5h-15z"/></g></svg>