<svg width="100" height="101" viewBox="0 0 100 101" fill="none" xmlns="http://www.w3.org/2000/svg">
<path d="M77.0835 40.4531C73.9587 39.3774 71.2005 37.4434 69.1252 34.8728C66.8379 32.0087 63.9254 29.7054 60.6106 28.1392C57.2958 26.5729 53.6664 25.7852 50.0002 25.8362C45.0684 25.4871 40.1859 27.0074 36.3252 30.0943C32.4644 33.1811 29.9087 37.6081 29.1668 42.4936C30.628 40.0501 32.8271 38.133 35.4476 37.018C38.0682 35.903 40.9752 35.6476 43.7502 36.2887C46.8697 37.3956 49.6234 39.3409 51.7085 41.9106C54.0083 44.7518 56.9263 47.0313 60.2405 48.5756C63.5546 50.1199 67.1775 50.8883 70.8335 50.8223C75.7653 51.1714 80.6477 49.6511 84.5085 46.5642C88.3692 43.4773 90.925 39.0504 91.6668 34.1649C90.2322 36.6376 88.0401 38.5837 85.4142 39.716C82.7883 40.8483 79.8676 41.1067 77.0835 40.4531ZM22.9168 61.1915C26.0416 62.2672 28.7998 64.2012 30.8752 66.7718C33.1625 69.6359 36.0749 71.9392 39.3897 73.5054C42.7046 75.0717 46.3339 75.8595 50.0002 75.8084C54.932 76.1575 59.8144 74.6372 63.6751 71.5503C67.5359 68.4635 70.0917 64.0365 70.8335 59.151C69.3724 61.5945 67.1733 63.5116 64.5527 64.6266C61.9321 65.7416 59.0252 65.997 56.2502 65.3559C53.1306 64.249 50.3769 62.3037 48.2918 59.734C45.9858 56.8998 43.0666 54.6253 39.7539 53.0817C36.4413 51.5381 32.8214 50.7656 29.1668 50.8223C24.235 50.4732 19.3526 51.9935 15.4919 55.0804C11.6311 58.1673 9.07534 62.5942 8.3335 67.4797C9.76811 65.007 11.9602 63.0609 14.5861 61.9286C17.2121 60.7963 20.1327 60.5379 22.9168 61.1915Z" fill="#CDCDCD"/>
</svg>
