<svg width="100" height="101" viewBox="0 0 100 101" fill="none" xmlns="http://www.w3.org/2000/svg">
<g clip-path="url(#clip0_196_562)">
<path d="M90.2344 0.850067H9.76562C4.37305 0.850067 0 5.22069 0 10.6103V91.0343C0 96.4239 4.37305 100.795 9.76562 100.795H90.2344C95.627 100.795 100 96.4239 100 91.0343V10.6103C100 5.22069 95.627 0.850067 90.2344 0.850067ZM58.0078 56.3036H45.4648V92.0104H35.5293V56.3036H23.0469V48.2846H58.0078V56.3036ZM90.4062 85.6799C88.4613 89.1584 84.8848 91.115 81.082 91.9245C76.666 92.8646 71.9705 92.8138 67.541 91.985C65.3711 91.5789 63.4922 90.968 61.9023 90.154V80.3801C63.6758 81.8676 65.6016 82.9822 67.6797 83.7239C69.7578 84.4677 71.8574 84.8386 73.9768 84.8386C75.8521 84.8386 77.9395 84.6074 79.5547 83.5717C80.6627 82.8648 81.4041 81.7498 81.4043 80.4117C81.4045 78.5914 80.0869 77.2158 78.668 76.2595C76.5898 74.8589 74.2004 73.9497 71.8984 72.9918C68.4746 71.5668 65.9219 69.8256 64.2402 67.7701C61.3143 64.1936 60.8352 58.478 63.0938 54.4396C65.0213 50.9933 68.5762 48.9573 72.3262 48.0565C76.4154 47.074 80.8506 47.073 84.9961 47.7207C86.7578 47.9959 88.3828 48.4176 89.8711 48.9876V58.1192C89.1367 57.6097 88.3379 57.1627 87.4707 56.7762C85.7607 56.0141 83.9152 55.4988 82.0605 55.2478C80.2053 54.9999 78.2541 54.9567 76.4217 55.3864C74.9783 55.7209 73.4621 56.388 72.6309 57.6761C72.2852 58.2168 72.1113 58.822 72.1113 59.4935C72.1113 60.2255 72.3047 60.8831 72.6912 61.4629C73.6721 62.9335 75.3934 63.8803 76.9414 64.639C79.6566 65.9699 82.5062 66.9719 85.1172 68.5177C87.6492 70.0114 89.9008 72.0958 91.002 74.8697C91.5312 76.2029 91.7969 77.7548 91.7969 79.5253C91.7969 81.9691 91.334 84.0207 90.4062 85.6799Z" fill="#CDCDCD"/>
</g>
<defs>
<clipPath id="clip0_196_562">
<rect width="100" height="99.9445" fill="white" transform="translate(0 0.850067)"/>
</clipPath>
</defs>
</svg>
