<svg width="104" height="104" viewBox="0 0 104 104" fill="none" xmlns="http://www.w3.org/2000/svg">
<path d="M56.4083 38.193L57.9809 36.6209L62.0966 32.5075C64.2205 30.3848 64.2205 26.9081 62.0966 24.7854C59.9729 22.6625 56.4944 22.6625 54.3704 24.7854L48.6821 30.4709" stroke="#616161" stroke-width="4" stroke-miterlimit="10" stroke-linecap="round" stroke-linejoin="round"/>
<path d="M82.8708 49.3976C81.011 47.5387 77.963 47.5387 76.1032 49.3976L68.8763 56.6263C67.0165 58.4852 67.0165 61.526 68.8763 63.3846C70.736 65.2435 73.7785 65.2435 75.6384 63.3846L82.8708 56.1559C84.7308 54.2972 84.7308 51.2564 82.8708 49.3976Z" stroke="#616161" stroke-width="4" stroke-miterlimit="10" stroke-linecap="round" stroke-linejoin="round"/>
<path d="M69.1003 40.9525C68.3769 41.6754 69.8637 40.1894 69.8866 40.1666C71.9472 38.0381 71.9244 34.6129 69.8234 32.5074C67.6997 30.3847 64.221 30.3847 62.0971 32.5074L59.25 35.353" stroke="#616161" stroke-width="4" stroke-miterlimit="10" stroke-linecap="round" stroke-linejoin="round"/>
<path d="M68.2561 86.1842C68.147 83.5852 68.6406 80.9576 69.7486 78.554L44.7788 53.5915M73.4969 64.6185L78.5941 69.7128C84.6902 66.9131 92.181 68.0148 97.1864 73.0174C101.182 77.0105 102.691 82.5869 101.71 87.7734C100.682 93.2178 97.8124 89.0986 97.2266 88.5135L90.2178 81.5085C87.7669 79.0586 83.8234 78.9554 81.2462 81.2043C78.9959 83.7803 79.0993 87.7218 81.5502 90.1716L88.559 97.1767C89.1446 97.7618 93.2661 100.63 87.8186 101.657C82.6295 102.638 77.05 101.129 73.0551 97.1363C71.8092 95.8857 70.8048 94.4858 70.0414 92.9943M40.5082 31.6527L34.2513 25.3934C37.0525 19.3006 35.9503 11.8137 30.9449 6.81106C26.9499 2.81797 21.3706 1.30898 16.1813 2.29012C10.7338 3.31701 14.8554 6.18565 15.4409 6.77075L22.4497 13.7758C24.9006 16.2256 25.004 20.1671 22.7539 22.7429C20.1765 24.992 16.233 24.8886 13.7821 22.4389L6.77328 15.4339C6.18776 14.8486 3.31775 10.7294 2.28999 16.174C1.3087 21.3605 2.81815 26.9369 6.81352 30.93C11.8189 35.9326 19.3097 37.0343 25.4058 34.2346L32.03 40.8551" stroke="#616161" stroke-width="4" stroke-miterlimit="10" stroke-linecap="round" stroke-linejoin="round"/>
<path d="M29.5103 79.793L38.1664 88.4444C39.5041 89.7813 39.5041 91.9671 38.1664 93.304L30.4691 100.997C29.1314 102.334 26.9445 102.334 25.6071 100.997L4.35121 79.7528C3.01379 78.416 3.01379 76.2302 4.35121 74.8933L12.0488 67.2C13.3862 65.8631 15.5731 65.8631 16.9107 67.2L24.5222 74.8074" stroke="#616161" stroke-width="4" stroke-miterlimit="10" stroke-linecap="round" stroke-linejoin="round"/>
<path d="M38.1665 88.4446L48.4184 78.198C52.2586 74.3599 53.0047 75.1861 57.5395 75.8345C59.5715 76.1269 62.4703 75.0426 64.8009 73.6084" stroke="#616161" stroke-width="4" stroke-miterlimit="10" stroke-linecap="round" stroke-linejoin="round"/>
<path d="M76.1029 41.6754C73.9789 39.5527 70.5005 39.5527 68.3767 41.6754L62.7109 47.3379C60.5814 49.4665 60.5814 52.9374 62.7109 55.0601C64.8349 57.1886 68.3134 57.1886 70.4373 55.0601L76.1029 49.3976C78.2325 47.2749 78.2325 43.7981 76.1029 41.6754Z" stroke="#616161" stroke-width="4" stroke-miterlimit="10" stroke-linecap="round" stroke-linejoin="round"/>
<path d="M63.4116 46.6438C63.5667 45.135 61.0754 42.8573 58.5152 40.2984L47.2589 29.048C46.1223 27.9121 44.2508 27.9121 43.1088 29.0538L33.8152 38.3422C31.703 40.4534 30.7557 43.5573 30.9223 46.3455C31.1806 50.6139 29.1943 54.9283 23.305 60.8088L16.9106 67.2M44.7504 41.9852C44.8478 42.0884 48.6536 45.8866 48.7512 45.9841C51.7647 48.8985 57.8436 51.4112 61.7641 48.6117" stroke="#616161" stroke-width="4" stroke-miterlimit="10" stroke-linecap="round" stroke-linejoin="round"/>
<path d="M44.7505 41.9852C48.1082 45.3414 47.1784 51.7098 42.6782 56.2075" stroke="#616161" stroke-width="4" stroke-miterlimit="10" stroke-linecap="round" stroke-linejoin="round"/>
</svg>
