<svg width="304" height="578" viewBox="0 0 304 578" fill="none" xmlns="http://www.w3.org/2000/svg">
<g clip-path="url(#clip0_268_229)" filter="url(#filter0_f_268_229)">
<path d="M5.4717 51.0629L-80.446 100.667C-81.448 101.246 -81.7907 102.525 -81.2122 103.527L0.425064 244.927C1.00357 245.929 2.28251 246.271 3.28451 245.693L89.2022 196.088C90.2042 195.51 90.5469 194.231 89.9684 193.229L8.33114 51.8291C7.75263 50.8271 6.4737 50.4844 5.4717 51.0629ZM13.9341 234.71L3.00406 241.021L-2.96909 230.675L7.96093 224.364L13.9341 234.71ZM5.86767 220.739L-5.06235 227.049L-11.1571 216.493L-0.22712 210.182L5.86767 220.739ZM-2.32038 206.557L-13.2504 212.867L-19.3452 202.311L-8.41517 196L-2.32038 206.557ZM-10.5084 192.375L-21.4384 198.685L-27.5332 188.129L-16.6032 181.818L-10.5084 192.375ZM-18.6965 178.192L-29.6265 184.503L-35.7213 173.946L-24.7913 167.636L-18.6965 178.192ZM-26.8845 164.01L-37.8145 170.321L-43.9093 159.764L-32.9793 153.454L-26.8845 164.01ZM-35.0726 149.828L-46.0026 156.139L-52.0974 145.582L-41.1674 139.272L-35.0726 149.828ZM-43.2606 135.646L-54.1906 141.957L-60.2854 131.4L-49.3554 125.09L-43.2606 135.646ZM-51.4487 121.464L-62.3787 127.774L-68.4735 117.218L-57.5435 110.907L-51.4487 121.464ZM-59.6367 107.282L-70.5667 113.592L-76.5399 103.246L-65.6099 96.936L-59.6367 107.282ZM70.7404 201.913L17.5597 232.617L-4.78953 193.907L48.3912 163.203L70.7404 201.913ZM46.2979 159.577L-6.88279 190.281L-37.5417 137.178L15.639 106.475L46.2979 159.577ZM13.5457 102.849L-39.635 133.553L-61.9842 94.8428L-8.80352 64.1389L13.5457 102.849ZM85.2961 193.509L74.3661 199.82L68.3929 189.474L79.3229 183.164L85.2961 193.509ZM77.2297 179.538L66.2997 185.848L60.2049 175.292L71.1349 168.981L77.2297 179.538ZM69.0416 165.356L58.1116 171.666L52.0168 161.11L62.9468 154.799L69.0416 165.356ZM60.8536 151.174L49.9236 157.484L43.8288 146.928L54.7588 140.617L60.8536 151.174ZM52.6655 136.992L41.7355 143.302L35.6407 132.746L46.5708 126.435L52.6655 136.992ZM44.4775 122.809L33.5475 129.12L27.4527 118.563L38.3827 112.253L44.4775 122.809ZM36.2894 108.627L25.3594 114.938L19.2646 104.381L30.1947 98.0708L36.2894 108.627ZM28.1014 94.4452L17.1714 100.756L11.0766 90.1992L22.0066 83.8887L28.1014 94.4452ZM19.9133 80.2631L8.98333 86.5735L2.88855 76.017L13.8186 69.7066L19.9133 80.2631ZM11.7253 66.081L0.795284 72.3914L-5.17787 62.0456L5.75214 55.7352L11.7253 66.081Z" fill="#D038D3"/>
</g>
<g clip-path="url(#clip1_268_229)" filter="url(#filter1_f_268_229)">
<path d="M87.2398 192.522L1.3221 242.126C0.32009 242.705 -0.0226006 243.984 0.555908 244.986L82.1931 386.386C82.7716 387.388 84.0506 387.73 85.0526 387.152L170.97 337.547C171.972 336.969 172.315 335.69 171.736 334.688L90.0992 193.288C89.5207 192.286 88.2418 191.943 87.2398 192.522ZM95.7021 376.169L84.7721 382.479L78.799 372.134L89.729 365.823L95.7021 376.169ZM87.6357 362.198L76.7057 368.508L70.6109 357.952L81.5409 351.641L87.6357 362.198ZM79.4477 348.015L68.5177 354.326L62.4229 343.769L73.3529 337.459L79.4477 348.015ZM71.2596 333.833L60.3296 340.144L54.2348 329.587L65.1649 323.277L71.2596 333.833ZM63.0716 319.651L52.1416 325.962L46.0468 315.405L56.9768 309.095L63.0716 319.651ZM54.8835 305.469L43.9535 311.78L37.8587 301.223L48.7888 294.913L54.8835 305.469ZM46.6955 291.287L35.7655 297.597L29.6707 287.041L40.6007 280.731L46.6955 291.287ZM38.5074 277.105L27.5774 283.415L21.4826 272.859L32.4127 266.548L38.5074 277.105ZM30.3194 262.923L19.3894 269.233L13.2946 258.677L24.2246 252.366L30.3194 262.923ZM22.1314 248.741L11.2013 255.051L5.22817 244.705L16.1582 238.395L22.1314 248.741ZM152.508 343.372L99.3278 374.076L76.9785 335.366L130.159 304.662L152.508 343.372ZM128.066 301.036L74.8853 331.74L44.2263 278.637L97.4071 247.933L128.066 301.036ZM95.3138 244.308L42.1331 275.012L19.7838 236.302L72.9645 205.598L95.3138 244.308ZM167.064 334.968L156.134 341.279L150.161 330.933L161.091 324.622L167.064 334.968ZM158.998 320.997L148.068 327.307L141.973 316.751L152.903 310.44L158.998 320.997ZM150.81 306.815L139.88 313.125L133.785 302.569L144.715 296.258L150.81 306.815ZM142.622 292.632L131.692 298.943L125.597 288.386L136.527 282.076L142.622 292.632ZM134.434 278.45L123.504 284.761L117.409 274.204L128.339 267.894L134.434 278.45ZM126.246 264.268L115.316 270.579L109.221 260.022L120.151 253.712L126.246 264.268ZM118.058 250.086L107.127 256.397L101.033 245.84L111.963 239.53L118.058 250.086ZM109.869 235.904L98.9394 242.214L92.8447 231.658L103.775 225.348L109.869 235.904ZM101.681 221.722L90.7514 228.032L84.6566 217.476L95.5866 211.165L101.681 221.722ZM93.4934 207.54L82.5634 213.85L76.5902 203.504L87.5202 197.194L93.4934 207.54Z" fill="#D038D3"/>
</g>
<g clip-path="url(#clip2_268_229)" filter="url(#filter2_f_268_229)">
<path d="M168.472 333.063L82.554 382.668C81.552 383.246 81.2093 384.525 81.7878 385.527L163.425 526.927C164.004 527.929 165.283 528.271 166.285 527.693L252.202 478.088C253.204 477.51 253.547 476.231 252.968 475.229L171.331 333.829C170.753 332.827 169.474 332.484 168.472 333.063ZM176.934 516.71L166.004 523.021L160.031 512.675L170.961 506.364L176.934 516.71ZM168.868 502.739L157.938 509.049L151.843 498.493L162.773 492.182L168.868 502.739ZM160.68 488.557L149.75 494.867L143.655 484.311L154.585 478L160.68 488.557ZM152.492 474.375L141.562 480.685L135.467 470.129L146.397 463.818L152.492 474.375ZM144.304 460.192L133.374 466.503L127.279 455.946L138.209 449.636L144.304 460.192ZM136.115 446.01L125.185 452.321L119.091 441.764L130.021 435.454L136.115 446.01ZM127.927 431.828L116.997 438.139L110.903 427.582L121.833 421.272L127.927 431.828ZM119.739 417.646L108.809 423.957L102.715 413.4L113.645 407.09L119.739 417.646ZM111.551 403.464L100.621 409.774L94.5265 399.218L105.457 392.908L111.551 403.464ZM103.363 389.282L92.4333 395.592L86.4601 385.247L97.3901 378.936L103.363 389.282ZM233.74 483.913L180.56 514.617L158.21 475.907L211.391 445.203L233.74 483.913ZM209.298 441.577L156.117 472.281L125.458 419.179L178.639 388.475L209.298 441.577ZM176.546 384.849L123.365 415.553L101.016 376.843L154.196 346.139L176.546 384.849ZM248.296 475.509L237.366 481.82L231.393 471.474L242.323 465.164L248.296 475.509ZM240.23 461.538L229.3 467.848L223.205 457.292L234.135 450.981L240.23 461.538ZM232.042 447.356L221.112 453.666L215.017 443.11L225.947 436.799L232.042 447.356ZM223.854 433.174L212.924 439.484L206.829 428.928L217.759 422.617L223.854 433.174ZM215.666 418.992L204.736 425.302L198.641 414.746L209.571 408.435L215.666 418.992ZM207.477 404.809L196.547 411.12L190.453 400.563L201.383 394.253L207.477 404.809ZM199.289 390.627L188.359 396.938L182.265 386.381L193.195 380.071L199.289 390.627ZM191.101 376.445L180.171 382.756L174.077 372.199L185.007 365.889L191.101 376.445ZM182.913 362.263L171.983 368.574L165.889 358.017L176.819 351.707L182.913 362.263ZM174.725 348.081L163.795 354.391L157.822 344.046L168.752 337.735L174.725 348.081Z" fill="#D038D3"/>
</g>
<g clip-path="url(#clip3_268_229)" filter="url(#filter3_f_268_229)">
<path d="M5.4717 51.0629L-80.446 100.667C-81.448 101.246 -81.7907 102.525 -81.2122 103.527L0.425064 244.927C1.00357 245.929 2.28251 246.271 3.28451 245.693L89.2022 196.088C90.2042 195.51 90.5469 194.231 89.9684 193.229L8.33114 51.8291C7.75263 50.8271 6.4737 50.4844 5.4717 51.0629ZM13.9341 234.71L3.00406 241.021L-2.96909 230.675L7.96093 224.364L13.9341 234.71ZM5.86767 220.739L-5.06235 227.049L-11.1571 216.493L-0.22712 210.182L5.86767 220.739ZM-2.32038 206.557L-13.2504 212.867L-19.3452 202.311L-8.41517 196L-2.32038 206.557ZM-10.5084 192.375L-21.4384 198.685L-27.5332 188.129L-16.6032 181.818L-10.5084 192.375ZM-18.6965 178.192L-29.6265 184.503L-35.7213 173.946L-24.7913 167.636L-18.6965 178.192ZM-26.8845 164.01L-37.8145 170.321L-43.9093 159.764L-32.9793 153.454L-26.8845 164.01ZM-35.0726 149.828L-46.0026 156.139L-52.0974 145.582L-41.1674 139.272L-35.0726 149.828ZM-43.2606 135.646L-54.1906 141.957L-60.2854 131.4L-49.3554 125.09L-43.2606 135.646ZM-51.4487 121.464L-62.3787 127.774L-68.4735 117.218L-57.5435 110.907L-51.4487 121.464ZM-59.6367 107.282L-70.5667 113.592L-76.5399 103.246L-65.6099 96.936L-59.6367 107.282ZM70.7404 201.913L17.5597 232.617L-4.78953 193.907L48.3912 163.203L70.7404 201.913ZM46.2979 159.577L-6.88279 190.281L-37.5417 137.178L15.639 106.475L46.2979 159.577ZM13.5457 102.849L-39.635 133.553L-61.9842 94.8428L-8.80352 64.1389L13.5457 102.849ZM85.2961 193.509L74.3661 199.82L68.3929 189.474L79.3229 183.164L85.2961 193.509ZM77.2297 179.538L66.2997 185.848L60.2049 175.292L71.1349 168.981L77.2297 179.538ZM69.0416 165.356L58.1116 171.666L52.0168 161.11L62.9468 154.799L69.0416 165.356ZM60.8536 151.174L49.9236 157.484L43.8288 146.928L54.7588 140.617L60.8536 151.174ZM52.6655 136.992L41.7355 143.302L35.6407 132.746L46.5708 126.435L52.6655 136.992ZM44.4775 122.809L33.5475 129.12L27.4527 118.563L38.3827 112.253L44.4775 122.809ZM36.2894 108.627L25.3594 114.938L19.2646 104.381L30.1947 98.0708L36.2894 108.627ZM28.1014 94.4452L17.1714 100.756L11.0766 90.1992L22.0066 83.8887L28.1014 94.4452ZM19.9133 80.2631L8.98333 86.5735L2.88855 76.017L13.8186 69.7066L19.9133 80.2631ZM11.7253 66.081L0.795284 72.3914L-5.17787 62.0456L5.75214 55.7352L11.7253 66.081Z" fill="#D038D3"/>
</g>
<g clip-path="url(#clip4_268_229)" filter="url(#filter4_f_268_229)">
<path d="M87.2398 192.522L1.3221 242.126C0.32009 242.705 -0.0226006 243.984 0.555908 244.986L82.1931 386.386C82.7716 387.388 84.0506 387.73 85.0526 387.152L170.97 337.547C171.972 336.969 172.315 335.69 171.736 334.688L90.0992 193.288C89.5207 192.286 88.2418 191.943 87.2398 192.522ZM95.7021 376.169L84.7721 382.479L78.799 372.134L89.729 365.823L95.7021 376.169ZM87.6357 362.198L76.7057 368.508L70.6109 357.952L81.5409 351.641L87.6357 362.198ZM79.4477 348.015L68.5177 354.326L62.4229 343.769L73.3529 337.459L79.4477 348.015ZM71.2596 333.833L60.3296 340.144L54.2348 329.587L65.1649 323.277L71.2596 333.833ZM63.0716 319.651L52.1416 325.962L46.0468 315.405L56.9768 309.095L63.0716 319.651ZM54.8835 305.469L43.9535 311.78L37.8587 301.223L48.7888 294.913L54.8835 305.469ZM46.6955 291.287L35.7655 297.597L29.6707 287.041L40.6007 280.731L46.6955 291.287ZM38.5074 277.105L27.5774 283.415L21.4826 272.859L32.4127 266.548L38.5074 277.105ZM30.3194 262.923L19.3894 269.233L13.2946 258.677L24.2246 252.366L30.3194 262.923ZM22.1314 248.741L11.2013 255.051L5.22817 244.705L16.1582 238.395L22.1314 248.741ZM152.508 343.372L99.3278 374.076L76.9785 335.366L130.159 304.662L152.508 343.372ZM128.066 301.036L74.8853 331.74L44.2263 278.637L97.4071 247.933L128.066 301.036ZM95.3138 244.308L42.1331 275.012L19.7838 236.302L72.9645 205.598L95.3138 244.308ZM167.064 334.968L156.134 341.279L150.161 330.933L161.091 324.622L167.064 334.968ZM158.998 320.997L148.068 327.307L141.973 316.751L152.903 310.44L158.998 320.997ZM150.81 306.815L139.88 313.125L133.785 302.569L144.715 296.258L150.81 306.815ZM142.622 292.632L131.692 298.943L125.597 288.386L136.527 282.076L142.622 292.632ZM134.434 278.45L123.504 284.761L117.409 274.204L128.339 267.894L134.434 278.45ZM126.246 264.268L115.316 270.579L109.221 260.022L120.151 253.712L126.246 264.268ZM118.058 250.086L107.127 256.397L101.033 245.84L111.963 239.53L118.058 250.086ZM109.869 235.904L98.9394 242.214L92.8447 231.658L103.775 225.348L109.869 235.904ZM101.681 221.722L90.7514 228.032L84.6566 217.476L95.5866 211.165L101.681 221.722ZM93.4934 207.54L82.5634 213.85L76.5902 203.504L87.5202 197.194L93.4934 207.54Z" fill="#D038D3"/>
</g>
<g clip-path="url(#clip5_268_229)" filter="url(#filter5_f_268_229)">
<path d="M168.472 333.063L82.554 382.668C81.552 383.246 81.2093 384.525 81.7878 385.527L163.425 526.927C164.004 527.929 165.283 528.271 166.285 527.693L252.202 478.088C253.204 477.51 253.547 476.231 252.968 475.229L171.331 333.829C170.753 332.827 169.474 332.484 168.472 333.063ZM176.934 516.71L166.004 523.021L160.031 512.675L170.961 506.364L176.934 516.71ZM168.868 502.739L157.938 509.049L151.843 498.493L162.773 492.182L168.868 502.739ZM160.68 488.557L149.75 494.867L143.655 484.311L154.585 478L160.68 488.557ZM152.492 474.375L141.562 480.685L135.467 470.129L146.397 463.818L152.492 474.375ZM144.304 460.192L133.374 466.503L127.279 455.946L138.209 449.636L144.304 460.192ZM136.115 446.01L125.185 452.321L119.091 441.764L130.021 435.454L136.115 446.01ZM127.927 431.828L116.997 438.139L110.903 427.582L121.833 421.272L127.927 431.828ZM119.739 417.646L108.809 423.957L102.715 413.4L113.645 407.09L119.739 417.646ZM111.551 403.464L100.621 409.774L94.5265 399.218L105.457 392.908L111.551 403.464ZM103.363 389.282L92.4333 395.592L86.4601 385.247L97.3901 378.936L103.363 389.282ZM233.74 483.913L180.56 514.617L158.21 475.907L211.391 445.203L233.74 483.913ZM209.298 441.577L156.117 472.281L125.458 419.179L178.639 388.475L209.298 441.577ZM176.546 384.849L123.365 415.553L101.016 376.843L154.196 346.139L176.546 384.849ZM248.296 475.509L237.366 481.82L231.393 471.474L242.323 465.164L248.296 475.509ZM240.23 461.538L229.3 467.848L223.205 457.292L234.135 450.981L240.23 461.538ZM232.042 447.356L221.112 453.666L215.017 443.11L225.947 436.799L232.042 447.356ZM223.854 433.174L212.924 439.484L206.829 428.928L217.759 422.617L223.854 433.174ZM215.666 418.992L204.736 425.302L198.641 414.746L209.571 408.435L215.666 418.992ZM207.477 404.809L196.547 411.12L190.453 400.563L201.383 394.253L207.477 404.809ZM199.289 390.627L188.359 396.938L182.265 386.381L193.195 380.071L199.289 390.627ZM191.101 376.445L180.171 382.756L174.077 372.199L185.007 365.889L191.101 376.445ZM182.913 362.263L171.983 368.574L165.889 358.017L176.819 351.707L182.913 362.263ZM174.725 348.081L163.795 354.391L157.822 344.046L168.752 337.735L174.725 348.081Z" fill="#D038D3"/>
</g>
<defs>
<filter id="filter0_f_268_229" x="-160" y="-16" width="328.756" height="328.756" filterUnits="userSpaceOnUse" color-interpolation-filters="sRGB">
<feFlood flood-opacity="0" result="BackgroundImageFix"/>
<feBlend mode="normal" in="SourceGraphic" in2="BackgroundImageFix" result="shape"/>
<feGaussianBlur stdDeviation="25" result="effect1_foregroundBlur_268_229"/>
</filter>
<filter id="filter1_f_268_229" x="-78.2319" y="125.459" width="328.756" height="328.756" filterUnits="userSpaceOnUse" color-interpolation-filters="sRGB">
<feFlood flood-opacity="0" result="BackgroundImageFix"/>
<feBlend mode="normal" in="SourceGraphic" in2="BackgroundImageFix" result="shape"/>
<feGaussianBlur stdDeviation="25" result="effect1_foregroundBlur_268_229"/>
</filter>
<filter id="filter2_f_268_229" x="3" y="266" width="328.756" height="328.756" filterUnits="userSpaceOnUse" color-interpolation-filters="sRGB">
<feFlood flood-opacity="0" result="BackgroundImageFix"/>
<feBlend mode="normal" in="SourceGraphic" in2="BackgroundImageFix" result="shape"/>
<feGaussianBlur stdDeviation="25" result="effect1_foregroundBlur_268_229"/>
</filter>
<filter id="filter3_f_268_229" x="-112" y="32" width="232.756" height="232.756" filterUnits="userSpaceOnUse" color-interpolation-filters="sRGB">
<feFlood flood-opacity="0" result="BackgroundImageFix"/>
<feBlend mode="normal" in="SourceGraphic" in2="BackgroundImageFix" result="shape"/>
<feGaussianBlur stdDeviation="1" result="effect1_foregroundBlur_268_229"/>
</filter>
<filter id="filter4_f_268_229" x="-30.2319" y="173.459" width="232.756" height="232.756" filterUnits="userSpaceOnUse" color-interpolation-filters="sRGB">
<feFlood flood-opacity="0" result="BackgroundImageFix"/>
<feBlend mode="normal" in="SourceGraphic" in2="BackgroundImageFix" result="shape"/>
<feGaussianBlur stdDeviation="1" result="effect1_foregroundBlur_268_229"/>
</filter>
<filter id="filter5_f_268_229" x="51" y="314" width="232.756" height="232.756" filterUnits="userSpaceOnUse" color-interpolation-filters="sRGB">
<feFlood flood-opacity="0" result="BackgroundImageFix"/>
<feBlend mode="normal" in="SourceGraphic" in2="BackgroundImageFix" result="shape"/>
<feGaussianBlur stdDeviation="1" result="effect1_foregroundBlur_268_229"/>
</filter>
<clipPath id="clip0_268_229">
<rect width="167.461" height="167.461" fill="white" transform="translate(-110 117.73) rotate(-30)"/>
</clipPath>
<clipPath id="clip1_268_229">
<rect width="167.461" height="167.461" fill="white" transform="translate(-28.2319 259.189) rotate(-30)"/>
</clipPath>
<clipPath id="clip2_268_229">
<rect width="167.461" height="167.461" fill="white" transform="translate(53 399.73) rotate(-30)"/>
</clipPath>
<clipPath id="clip3_268_229">
<rect width="167.461" height="167.461" fill="white" transform="translate(-110 117.73) rotate(-30)"/>
</clipPath>
<clipPath id="clip4_268_229">
<rect width="167.461" height="167.461" fill="white" transform="translate(-28.2319 259.189) rotate(-30)"/>
</clipPath>
<clipPath id="clip5_268_229">
<rect width="167.461" height="167.461" fill="white" transform="translate(53 399.73) rotate(-30)"/>
</clipPath>
</defs>
</svg>
